<svg viewBox="0 0 20 13" fill="none" xmlns="http://www.w3.org/2000/svg">
<path d="M3.51929 10.3383H3.02236C2.37929 10.3383 1.85898 9.81754 1.85898 9.17392V8V3" stroke="currentColor" stroke-miterlimit="10"/>
<path d="M6.35481 10.3441H11.8093C12.4523 10.3441 12.9727 9.82333 12.9727 9.17971V2.45684C12.9727 1.81323 12.4523 1.29248 11.8093 1.29248H3.02835C2.38527 1.29248 1.86496 1.81323 1.86496 2.45684V2.99994" stroke="currentColor" stroke-miterlimit="10"/>
<path d="M17.1351 10.344H17.5444C18.1875 10.344 18.7078 9.82328 18.7078 9.17967V7.24296C18.7078 6.72807 18.3745 6.28924 17.9127 6.13711C17.6321 6.0435 17.4216 5.80945 17.293 5.54031L16.4804 3.79084C16.2524 3.2935 15.7555 2.97754 15.2059 2.97754H12.9727" stroke="currentColor" stroke-miterlimit="10"/>
<path d="M4.93998 11.7074C4.1554 11.7074 3.51937 11.0708 3.51937 10.2856C3.51937 9.50034 4.1554 8.86377 4.93998 8.86377C5.72457 8.86377 6.3606 9.50034 6.3606 10.2856C6.3606 11.0708 5.72457 11.7074 4.93998 11.7074Z" stroke="currentColor" stroke-miterlimit="10"/>
<path d="M15.7378 11.7074C14.9532 11.7074 14.3172 11.0708 14.3172 10.2856C14.3172 9.50034 14.9532 8.86377 15.7378 8.86377C16.5224 8.86377 17.1584 9.50034 17.1584 10.2856C17.1584 11.0708 16.5224 11.7074 15.7378 11.7074Z" stroke="currentColor" stroke-miterlimit="10"/>
<path d="M14.3171 10.3442H11.8091" stroke="currentColor" stroke-miterlimit="10"/>
</svg>
