<svg viewBox="0 0 12 12" fill="none" xmlns="http://www.w3.org/2000/svg">
<path d="M5.52558 0.925591C5.67739 0.469432 6.32262 0.469433 6.47442 0.925592L7.53862 4.12344C7.60661 4.32773 7.79774 4.46556 8.01304 4.46556H11.431C11.9182 4.46556 12.1177 5.09146 11.7202 5.37337L8.97584 7.32016C8.79639 7.44745 8.72124 7.67709 8.79071 7.88585L9.84381 11.0503C9.99641 11.5089 9.47428 11.8956 9.0801 11.616L6.28929 9.63633C6.11601 9.51341 5.88399 9.51341 5.71071 9.63633L2.9199 11.616C2.52572 11.8956 2.00359 11.5089 2.15619 11.0503L3.20929 7.88585C3.27876 7.67709 3.20361 7.44745 3.02416 7.32016L0.279755 5.37337C-0.117663 5.09146 0.0817896 4.46556 0.569044 4.46556H3.98696C4.20226 4.46556 4.39339 4.32773 4.46138 4.12344L5.52558 0.925591Z" fill="currentColor"/>
</svg>
