<svg viewBox="0 0 85 24" fill="none" xmlns="http://www.w3.org/2000/svg">
<g clip-path="url(#clip0_2001_876)">
<path d="M3.15334 23.5101V23.5693C3.15334 23.7037 3.16917 23.7827 3.19291 23.8064C3.21665 23.8302 3.30369 23.842 3.44218 23.842C3.65188 23.842 3.82992 23.8183 3.98423 23.7669C4.13854 23.7195 4.2335 23.6523 4.27702 23.5693C4.29285 23.5377 4.30868 23.5259 4.3245 23.5259C4.34429 23.5259 4.3522 23.5377 4.34824 23.5575C4.34429 23.6286 4.30868 23.7116 4.23746 23.7985C4.1425 23.9211 3.98819 23.9803 3.77058 23.9803C3.73497 23.9803 3.6954 23.9803 3.64792 23.9764L3.46592 23.9645C3.35909 23.9566 3.2483 23.9527 3.1296 23.9527C2.99112 23.9527 2.87638 23.9606 2.78538 23.9724C2.74581 23.9764 2.71416 23.9803 2.69042 23.9803C2.66272 23.9803 2.6469 23.9724 2.6469 23.9527C2.6469 23.9369 2.66272 23.921 2.69437 23.9131C2.76955 23.8894 2.82494 23.8578 2.84868 23.8104C2.87638 23.7669 2.88825 23.6879 2.88825 23.5812V22.0123C2.88825 21.8621 2.8289 21.7791 2.7102 21.7554L2.63503 21.7396C2.60733 21.7356 2.59546 21.7238 2.59546 21.708C2.59546 21.6843 2.61524 21.6685 2.65085 21.6685C2.67459 21.6685 2.7102 21.6685 2.75372 21.6764C2.8289 21.6843 2.91595 21.6882 3.00695 21.6882C3.10982 21.6882 3.20082 21.6882 3.28391 21.6803C3.32743 21.6803 3.35117 21.6803 3.35513 21.6803C3.38283 21.6803 3.3947 21.6882 3.3947 21.704C3.3947 21.7277 3.37887 21.7435 3.34722 21.7514L3.28787 21.7633C3.18895 21.787 3.13752 21.8858 3.13752 22.0636V23.514L3.15334 23.5101Z" fill="#4A3937"/>
<path d="M7.62828 22.9962V22.1347C7.62828 21.9964 7.60849 21.8936 7.56893 21.8343C7.52936 21.7711 7.4621 21.7355 7.36318 21.7276C7.33153 21.7276 7.3157 21.7118 7.3157 21.6921C7.3157 21.6683 7.32757 21.6565 7.34736 21.6565C7.3711 21.6565 7.40671 21.6604 7.45419 21.6684C7.49771 21.6763 7.54914 21.6802 7.60454 21.6802C7.72719 21.6802 7.80633 21.6802 7.83402 21.6763C7.87359 21.6763 7.89733 21.6723 7.90524 21.6723C7.92502 21.6723 7.93689 21.6842 7.93689 21.7C7.93689 21.7158 7.92502 21.7276 7.90128 21.7395C7.83402 21.7671 7.7905 21.8067 7.77072 21.858C7.75093 21.9094 7.73906 22.0003 7.73906 22.1426V22.9685C7.73906 23.2728 7.67971 23.506 7.55706 23.668C7.48188 23.7708 7.3711 23.8538 7.22866 23.917C7.08622 23.9763 6.93191 24.0079 6.76969 24.0079C6.57977 24.0079 6.40964 23.9723 6.25929 23.8972C6.10894 23.8221 5.99815 23.7233 5.92693 23.5969C5.8478 23.4507 5.80823 23.2649 5.80823 23.0318V22.0912C5.80823 21.9726 5.78845 21.8897 5.7568 21.8462C5.72514 21.8027 5.65788 21.7711 5.55896 21.7553C5.52731 21.7513 5.51544 21.7395 5.51544 21.7197C5.51544 21.6921 5.53523 21.6802 5.57875 21.6802C5.60644 21.6802 5.64601 21.6802 5.69349 21.6802C5.74493 21.6802 5.78054 21.6842 5.80428 21.6842H6.06146C6.06146 21.6842 6.10498 21.6802 6.15641 21.6763C6.19598 21.6763 6.22763 21.6723 6.24346 21.6723C6.2672 21.6723 6.28303 21.6802 6.28303 21.7C6.28303 21.7197 6.2672 21.7355 6.23159 21.7395C6.16828 21.7553 6.12476 21.783 6.10102 21.8225C6.08124 21.8659 6.06937 21.9371 6.06937 22.0477V22.9962C6.06937 23.2807 6.11685 23.4862 6.20785 23.6087C6.33446 23.7826 6.54416 23.8696 6.84091 23.8696C7.106 23.8696 7.30384 23.7984 7.4344 23.6522C7.56497 23.506 7.63223 23.2886 7.63223 22.9962" fill="#4A3937"/>
<path d="M10.5483 22.8144L10.9756 23.4586C11.0864 23.6246 11.1734 23.7431 11.2407 23.8182C11.2842 23.8656 11.3435 23.8972 11.4266 23.913C11.4662 23.9209 11.486 23.9328 11.486 23.9526C11.486 23.9723 11.4702 23.9802 11.4425 23.9802C11.4266 23.9802 11.4068 23.9802 11.3752 23.9763C11.3238 23.9684 11.2407 23.9644 11.1259 23.9644H11.0428L10.8252 23.9802C10.7975 23.9842 10.7738 23.9881 10.758 23.9881C10.7303 23.9881 10.7144 23.9802 10.7144 23.9605C10.7144 23.9407 10.7342 23.9249 10.7738 23.913C10.8371 23.8972 10.8687 23.8617 10.8687 23.8103C10.8687 23.7787 10.849 23.7313 10.8094 23.672L10.3702 23.012C10.3504 22.9804 10.3346 22.9685 10.3267 22.9685C10.3148 22.9685 10.2911 22.9962 10.2515 23.0555C10.1526 23.2056 10.0932 23.2886 10.0814 23.3084L9.9152 23.5455C9.83211 23.6641 9.78859 23.751 9.78859 23.8063C9.78859 23.8656 9.81233 23.9012 9.86772 23.9091L9.95477 23.917C9.98246 23.917 9.99433 23.9328 9.99433 23.9565C9.99433 23.9763 9.98246 23.9842 9.95477 23.9842C9.93498 23.9842 9.9152 23.9842 9.88355 23.9763C9.82024 23.9644 9.74902 23.9605 9.6778 23.9605C9.59471 23.9605 9.50371 23.9644 9.40875 23.9723C9.3771 23.9723 9.35732 23.9763 9.34149 23.9763C9.30588 23.9763 9.2861 23.9644 9.2861 23.9447C9.2861 23.9288 9.29797 23.913 9.32566 23.9091C9.40084 23.8893 9.46019 23.8617 9.50767 23.8261C9.55515 23.7905 9.61054 23.7233 9.68176 23.6245C9.74902 23.5297 9.80837 23.4467 9.85189 23.3835C9.99433 23.1898 10.0774 23.0752 10.1051 23.0318C10.1447 22.9725 10.1724 22.933 10.1803 22.9211C10.2119 22.8776 10.2278 22.85 10.2238 22.8302C10.2238 22.8144 10.2119 22.7907 10.1922 22.763L10.1605 22.7077L9.79255 22.1663C9.66593 21.9766 9.57889 21.862 9.52745 21.8146C9.47602 21.7671 9.4048 21.7395 9.31775 21.7276C9.27423 21.7237 9.25049 21.7079 9.25049 21.6881C9.25049 21.6644 9.27027 21.6565 9.30984 21.6565C9.38897 21.6565 9.51558 21.6604 9.68176 21.6763C9.71737 21.6763 9.74507 21.6802 9.76881 21.6802C9.78068 21.6802 9.84398 21.6763 9.95477 21.6684C9.97455 21.6684 9.99829 21.6684 10.0181 21.6684C10.0537 21.6684 10.0695 21.6802 10.0695 21.7039C10.0695 21.7197 10.0497 21.7316 10.0141 21.7395C9.95081 21.7513 9.91916 21.779 9.91916 21.8304C9.91916 21.862 9.9429 21.9173 9.99433 21.9924L10.386 22.5773C10.386 22.5773 10.3979 22.5931 10.4058 22.5931C10.4137 22.5931 10.4256 22.5812 10.4454 22.5536L10.7896 22.0675L10.845 21.9924C10.8846 21.9371 10.9083 21.8897 10.9083 21.8541C10.9083 21.8027 10.8846 21.7711 10.8331 21.7592L10.7738 21.7434C10.7461 21.7355 10.7303 21.7197 10.7303 21.7C10.7303 21.6842 10.7421 21.6763 10.7659 21.6763C10.7817 21.6763 10.8054 21.6763 10.8331 21.6802C10.8806 21.6842 10.9637 21.6881 11.0824 21.6881C11.1457 21.6881 11.2051 21.6881 11.2644 21.6802C11.2961 21.6802 11.3238 21.6763 11.3435 21.6763C11.3712 21.6763 11.3871 21.6842 11.3871 21.7039C11.3871 21.7276 11.3712 21.7434 11.3435 21.7513L11.2605 21.783C11.1813 21.8146 11.0903 21.8976 10.9914 22.0319L10.5522 22.6405C10.5206 22.6879 10.5008 22.7196 10.5008 22.7354C10.5008 22.7512 10.5047 22.767 10.5206 22.7867L10.5483 22.8302V22.8144Z" fill="#4A3937"/>
<path d="M14.8135 22.9962V22.1347C14.8135 21.9964 14.7937 21.8936 14.7542 21.8343C14.7146 21.7711 14.6473 21.7355 14.5484 21.7276C14.5168 21.7276 14.5009 21.7118 14.5009 21.6921C14.5009 21.6683 14.5128 21.6565 14.5326 21.6565C14.5563 21.6565 14.5919 21.6604 14.6394 21.6684C14.683 21.6763 14.7344 21.6802 14.7898 21.6802C14.9124 21.6802 14.9916 21.6802 15.0193 21.6763C15.0588 21.6763 15.0826 21.6723 15.0905 21.6723C15.1103 21.6723 15.1221 21.6842 15.1221 21.7C15.1221 21.7158 15.1103 21.7276 15.0865 21.7395C15.0193 21.7671 14.9757 21.8067 14.956 21.858C14.9362 21.9094 14.9283 22.0003 14.9283 22.1426V22.9685C14.9283 23.2728 14.8689 23.506 14.7463 23.668C14.6711 23.7708 14.5603 23.8538 14.4179 23.917C14.2754 23.9763 14.1211 24.0079 13.9589 24.0079C13.769 24.0079 13.5988 23.9723 13.4485 23.8972C13.2981 23.8221 13.1873 23.7233 13.1161 23.5969C13.037 23.4507 12.9974 23.2649 12.9974 23.0318V22.0912C12.9974 21.9726 12.9776 21.8897 12.946 21.8462C12.9143 21.8027 12.8471 21.7711 12.7482 21.7553C12.7165 21.7513 12.7007 21.7395 12.7007 21.7197C12.7007 21.6921 12.7205 21.6802 12.764 21.6802C12.7917 21.6802 12.8313 21.6802 12.8787 21.6802C12.9302 21.6802 12.9658 21.6842 12.9895 21.6842H13.2467C13.2467 21.6842 13.2902 21.6802 13.3417 21.6763C13.3812 21.6763 13.4129 21.6723 13.4287 21.6723C13.4524 21.6723 13.4683 21.6802 13.4683 21.7C13.4683 21.7197 13.4524 21.7355 13.4168 21.7395C13.3535 21.7553 13.31 21.783 13.2863 21.8225C13.2665 21.8659 13.2546 21.9371 13.2546 22.0477V22.9962C13.2546 23.2807 13.3021 23.4862 13.3931 23.6087C13.5197 23.7826 13.7294 23.8696 14.0262 23.8696C14.2912 23.8696 14.4891 23.7984 14.6196 23.6522C14.7502 23.506 14.8175 23.2886 14.8175 22.9962" fill="#4A3937"/>
<path d="M17.777 22.8144L18.2399 23.4941L18.2914 23.5731C18.4338 23.7826 18.5644 23.8893 18.687 23.8972H18.7424C18.7622 23.9011 18.7701 23.909 18.7701 23.9249C18.7701 23.9407 18.7424 23.9565 18.695 23.9723C18.6475 23.9841 18.5921 23.992 18.5288 23.992C18.4299 23.992 18.3389 23.9644 18.2597 23.909C18.1806 23.8537 18.0975 23.7628 18.0184 23.6403L17.6029 23.008L17.5792 22.9724C17.5515 22.929 17.508 22.9053 17.4486 22.9053H17.2271L17.1914 22.9132C17.1914 22.9132 17.1717 22.9408 17.1717 22.9645V23.5534C17.1717 23.6482 17.1796 23.7154 17.1875 23.751C17.1994 23.7865 17.2191 23.8181 17.2548 23.8458C17.3022 23.8853 17.3774 23.909 17.4763 23.9169C17.5159 23.9209 17.5357 23.9328 17.5396 23.9565C17.5396 23.9802 17.5238 23.9881 17.4842 23.9881C17.4684 23.9881 17.4368 23.9881 17.3853 23.9802C17.3378 23.9762 17.2706 23.9723 17.1717 23.9723H16.9264C16.8868 23.9723 16.8433 23.9723 16.7879 23.9802C16.7443 23.9841 16.7127 23.9881 16.6969 23.9881C16.6692 23.9881 16.6533 23.9762 16.6533 23.9525C16.6533 23.9367 16.6692 23.9249 16.6969 23.9209C16.7839 23.9051 16.8433 23.8656 16.871 23.7984C16.8987 23.7352 16.9105 23.6087 16.9105 23.419V22.0477C16.9105 21.8738 16.8472 21.779 16.7246 21.7552L16.6454 21.7434C16.6098 21.7355 16.594 21.7236 16.594 21.7039C16.594 21.6802 16.6138 21.6683 16.6494 21.6683C16.6573 21.6683 16.6969 21.6683 16.7681 21.6762C16.8077 21.6762 16.8591 21.6802 16.9184 21.6802C16.9699 21.6802 17.0569 21.6802 17.1796 21.6683C17.2666 21.6644 17.3458 21.6604 17.417 21.6604C17.6742 21.6604 17.868 21.7078 17.9946 21.8027C18.1252 21.8975 18.1885 22.0437 18.1885 22.2334C18.1885 22.4824 18.05 22.676 17.777 22.8144ZM17.2864 22.7788H17.4763C17.6227 22.7788 17.7375 22.7393 17.8205 22.6563C17.9036 22.5772 17.9472 22.4666 17.9472 22.3283C17.9472 22.1662 17.8918 22.0319 17.777 21.9291C17.6623 21.8264 17.5198 21.7711 17.3418 21.7711C17.2745 21.7711 17.231 21.7829 17.2033 21.8027C17.1796 21.8264 17.1677 21.8619 17.1677 21.9212V22.6563C17.1677 22.7077 17.1756 22.7432 17.1914 22.7551C17.2073 22.7709 17.2389 22.7748 17.2904 22.7748" fill="#4A3937"/>
<path d="M20.9265 23.6166C20.9265 23.747 20.9384 23.8261 20.9582 23.8537C20.9779 23.8814 21.0412 23.9011 21.1402 23.913C21.1758 23.913 21.1916 23.9288 21.1916 23.9486C21.1916 23.9762 21.1718 23.9881 21.1322 23.9881C21.1204 23.9881 21.0927 23.9881 21.0452 23.9802C21.0175 23.9802 20.9779 23.9723 20.9225 23.9683L20.792 23.9604H20.6614C20.5783 23.9604 20.5229 23.9644 20.4952 23.9683C20.4636 23.9723 20.4398 23.9762 20.4319 23.9762C20.4082 23.9762 20.3924 23.9683 20.3924 23.9486C20.3924 23.9288 20.4121 23.913 20.4478 23.909C20.5427 23.8972 20.6021 23.8695 20.6258 23.834C20.6495 23.7984 20.6654 23.7194 20.6654 23.6008V23.0317C20.6654 22.9606 20.6654 22.9092 20.6535 22.8736C20.6456 22.8381 20.6179 22.7906 20.5823 22.7314L20.1154 21.9924L20.06 21.9015C20.0284 21.8501 19.9809 21.8066 19.9215 21.775C19.8622 21.7434 19.8028 21.7276 19.7474 21.7276C19.7158 21.7276 19.7 21.7157 19.7 21.696C19.7 21.6723 19.7158 21.6604 19.7514 21.6604C19.7791 21.6604 19.8068 21.6604 19.8345 21.6644C19.9057 21.6723 19.9809 21.6762 20.06 21.6762C20.2222 21.6762 20.3291 21.6762 20.3726 21.6683C20.4201 21.6644 20.4517 21.6604 20.4596 21.6604C20.4913 21.6604 20.5071 21.6723 20.5071 21.692C20.5071 21.7078 20.4952 21.7197 20.4675 21.7276C20.3924 21.7513 20.3568 21.7869 20.3568 21.8422C20.3568 21.8699 20.3805 21.9252 20.428 22.0042L20.4754 22.0833L20.8276 22.6326L20.8513 22.6642C20.8513 22.6642 20.8711 22.6879 20.883 22.6879C20.8948 22.6879 20.9067 22.68 20.9186 22.6642L20.9344 22.6405L21.1758 22.2729L21.2589 22.1425C21.338 22.02 21.3736 21.937 21.3736 21.8936C21.3736 21.8185 21.3024 21.7671 21.1639 21.7315C21.1362 21.7236 21.1243 21.7118 21.1243 21.692C21.1243 21.6723 21.1402 21.6644 21.1639 21.6644C21.1797 21.6644 21.2114 21.6644 21.2509 21.6723C21.2826 21.6762 21.3617 21.6802 21.4844 21.6802C21.5991 21.6802 21.6703 21.6802 21.702 21.6762C21.7455 21.6723 21.7732 21.6683 21.789 21.6683C21.8207 21.6683 21.8326 21.6762 21.8326 21.696C21.8326 21.7118 21.8207 21.7276 21.793 21.7355C21.6941 21.7671 21.611 21.8303 21.5477 21.9212L21.4369 22.0833L21.0294 22.6879L20.9898 22.7432C20.9463 22.8025 20.9265 22.8578 20.9265 22.9092V23.6087V23.6166Z" fill="#4A3937"/>
<path d="M26.3629 21.6368C26.7111 21.6368 26.996 21.7435 27.2215 21.9608C27.4431 22.1742 27.5578 22.4509 27.5578 22.7868C27.5578 23.1424 27.447 23.4349 27.2215 23.6601C26.996 23.8894 26.7071 24 26.3589 24C26.0108 24 25.7101 23.8894 25.4885 23.672C25.2669 23.4546 25.1561 23.1701 25.1561 22.8144C25.1561 22.6603 25.1838 22.5101 25.2432 22.36C25.3025 22.2098 25.3817 22.0833 25.4806 21.9806C25.5834 21.8739 25.718 21.7909 25.8802 21.7277C26.0385 21.6644 26.2046 21.6328 26.3708 21.6328M26.264 21.7395C26.0068 21.7395 25.8011 21.8265 25.6467 22.0003C25.4964 22.1742 25.4173 22.4074 25.4173 22.7038C25.4173 23.0397 25.5162 23.3242 25.7101 23.5534C25.9039 23.7827 26.1413 23.9012 26.4262 23.9012C26.6834 23.9012 26.897 23.8064 27.0672 23.6206C27.2334 23.4309 27.3204 23.1938 27.3204 22.9053C27.3204 22.5734 27.2175 22.2967 27.0197 22.0754C26.8179 21.8541 26.5686 21.7435 26.2679 21.7435" fill="#4A3937"/>
<path d="M31.0673 22.9962V22.1347C31.0673 21.9964 31.0475 21.8936 31.008 21.8343C30.9684 21.7711 30.9011 21.7355 30.8022 21.7276C30.7706 21.7276 30.7547 21.7118 30.7547 21.6921C30.7547 21.6683 30.7666 21.6565 30.7864 21.6565C30.8101 21.6565 30.8457 21.6604 30.8932 21.6684C30.9367 21.6763 30.9882 21.6802 31.0436 21.6802C31.1662 21.6802 31.2454 21.6802 31.2731 21.6763C31.3126 21.6763 31.3364 21.6723 31.3443 21.6723C31.3641 21.6723 31.3759 21.6842 31.3759 21.7C31.3759 21.7158 31.3641 21.7276 31.3403 21.7395C31.2731 21.7671 31.2295 21.8067 31.2098 21.858C31.19 21.9094 31.1821 22.0003 31.1821 22.1426V22.9685C31.1821 23.2728 31.1227 23.506 31 23.668C30.9249 23.7708 30.8141 23.8538 30.6716 23.917C30.5292 23.9763 30.3749 24.0079 30.2127 24.0079C30.0228 24.0079 29.8526 23.9723 29.7023 23.8972C29.5519 23.8221 29.4411 23.7233 29.3699 23.5969C29.2908 23.4507 29.2512 23.2649 29.2512 23.0318V22.0912C29.2512 21.9726 29.2314 21.8897 29.1998 21.8462C29.1681 21.8027 29.1009 21.7711 29.002 21.7553C28.9703 21.7513 28.9584 21.7395 28.9584 21.7197C28.9584 21.6921 28.9782 21.6802 29.0217 21.6802C29.0494 21.6802 29.089 21.6802 29.1365 21.6802C29.1879 21.6802 29.2235 21.6842 29.2473 21.6842H29.5044C29.5044 21.6842 29.548 21.6802 29.5994 21.6763C29.639 21.6763 29.6706 21.6723 29.6865 21.6723C29.7102 21.6723 29.726 21.6802 29.726 21.7C29.726 21.7197 29.7102 21.7355 29.6746 21.7395C29.6113 21.7553 29.5678 21.783 29.544 21.8225C29.5242 21.8659 29.5124 21.9371 29.5124 22.0477V22.9962C29.5124 23.2807 29.5598 23.4862 29.6508 23.6087C29.7775 23.7826 29.9872 23.8696 30.2839 23.8696C30.549 23.8696 30.7468 23.7984 30.8774 23.6522C31.008 23.506 31.0752 23.2886 31.0752 22.9962" fill="#4A3937"/>
<path d="M34.4819 21.8542H34.0111C33.9636 21.8542 33.9319 21.8621 33.9201 21.8739C33.9082 21.8858 33.9003 21.9213 33.9003 21.9727V23.676C33.9082 23.8064 33.9794 23.8855 34.1218 23.9092C34.1614 23.9171 34.1812 23.9289 34.1812 23.9487C34.1812 23.9724 34.1654 23.9843 34.1337 23.9843C34.1218 23.9843 34.0941 23.9843 34.0506 23.9724C34.0308 23.9724 33.9794 23.9684 33.9003 23.9684H33.6471C33.5996 23.9684 33.56 23.9684 33.5284 23.9724C33.465 23.9803 33.4294 23.9843 33.4176 23.9843C33.3859 23.9843 33.3661 23.9724 33.3661 23.9487C33.3661 23.9329 33.3859 23.921 33.4215 23.9171C33.5086 23.9052 33.564 23.8815 33.5956 23.8459C33.6273 23.8104 33.6391 23.7432 33.6391 23.6523V21.953C33.6391 21.9134 33.6312 21.8858 33.6194 21.8779C33.6075 21.87 33.5798 21.8621 33.5363 21.8621H33.0931C33.0021 21.8621 32.9388 21.8818 32.8953 21.9174C32.8557 21.953 32.8241 22.0201 32.8003 22.1229C32.7885 22.1664 32.7766 22.1861 32.7568 22.1861C32.737 22.1861 32.7252 22.1703 32.7252 22.1427C32.7252 22.1189 32.7331 22.0755 32.7449 22.0162C32.7608 21.9372 32.7687 21.87 32.7687 21.8186C32.7687 21.7672 32.7726 21.7356 32.7885 21.7159C32.8003 21.7 32.8241 21.6921 32.8636 21.6921H34.6599C34.7193 21.6921 34.7589 21.7 34.7707 21.7119C34.7826 21.7238 34.7905 21.7633 34.7905 21.8305C34.7905 21.8976 34.7905 21.9451 34.7984 21.9727C34.8024 22.0122 34.8063 22.036 34.8063 22.0557C34.8063 22.0873 34.7945 22.1071 34.7707 22.111C34.7509 22.111 34.7391 22.0952 34.7312 22.0597C34.7153 21.9806 34.6916 21.9293 34.6599 21.9055C34.6283 21.8818 34.565 21.87 34.47 21.87" fill="#4A3937"/>
<path d="M36.4444 22.0794C36.4444 21.9648 36.4246 21.8858 36.389 21.8305C36.3494 21.7791 36.2861 21.7475 36.1991 21.7396C36.1635 21.7396 36.1437 21.7238 36.1437 21.704C36.1437 21.6842 36.1595 21.6724 36.1872 21.6724L36.3178 21.6803C36.3178 21.6803 36.3692 21.6803 36.4365 21.6803C36.5473 21.6803 36.6383 21.6803 36.6976 21.6724L36.8519 21.6566C36.9192 21.6526 36.9904 21.6487 37.0735 21.6487C37.5285 21.6487 37.8727 21.7633 38.0983 21.9925C38.308 22.202 38.4108 22.4707 38.4108 22.7947C38.4108 23.0042 38.3673 23.1978 38.2723 23.3717C38.1813 23.5456 38.0547 23.6839 37.8925 23.7867C37.6868 23.9131 37.4652 23.9803 37.2199 23.9803C37.1922 23.9803 37.1407 23.9803 37.0656 23.9724C36.9152 23.9645 36.7886 23.9566 36.6778 23.9566C36.5591 23.9566 36.4562 23.9645 36.3692 23.9764C36.3296 23.9803 36.298 23.9843 36.2742 23.9882C36.2347 23.9882 36.2149 23.9764 36.2149 23.9487C36.2149 23.9289 36.2307 23.9171 36.2624 23.9131C36.3376 23.8973 36.389 23.8697 36.4088 23.8301C36.4325 23.7906 36.4404 23.7076 36.4404 23.5851V22.0834L36.4444 22.0794ZM36.7016 21.9451V23.6602C36.7016 23.7274 36.7372 23.7748 36.8044 23.7985C36.8638 23.8222 36.939 23.838 37.03 23.8578C37.121 23.8736 37.2001 23.8815 37.2634 23.8815C37.4533 23.8815 37.6235 23.8341 37.7778 23.7392C38.0349 23.5812 38.1655 23.3085 38.1655 22.9252C38.1655 22.7157 38.1259 22.526 38.0429 22.3482C37.9637 22.1743 37.8529 22.036 37.7105 21.9372C37.5364 21.8147 37.3307 21.7514 37.0814 21.7514C36.9073 21.7514 36.7926 21.7712 36.7451 21.8068C36.7174 21.8305 36.7016 21.8739 36.7016 21.9451Z" fill="#4A3937"/>
<path d="M41.0934 21.6368C41.4416 21.6368 41.7265 21.7435 41.952 21.9608C42.1736 22.1742 42.2883 22.4509 42.2883 22.7868C42.2883 23.1424 42.1775 23.4349 41.952 23.6601C41.7265 23.8894 41.4377 24 41.0895 24C40.7413 24 40.4406 23.8894 40.219 23.672C39.9974 23.4546 39.8867 23.1701 39.8867 22.8144C39.8867 22.6603 39.9144 22.5101 39.9737 22.36C40.0331 22.2098 40.1122 22.0833 40.2111 21.9806C40.314 21.8739 40.4485 21.7909 40.6107 21.7277C40.769 21.6644 40.9352 21.6328 41.1013 21.6328M40.9945 21.7395C40.7373 21.7395 40.5316 21.8265 40.3773 22.0003C40.2269 22.1742 40.1478 22.4074 40.1478 22.7038C40.1478 23.0397 40.2467 23.3242 40.4406 23.5534C40.6345 23.7827 40.8758 23.9012 41.1567 23.9012C41.4139 23.9012 41.6276 23.8064 41.7977 23.6206C41.9639 23.4309 42.0509 23.1938 42.0509 22.9053C42.0509 22.5734 41.9481 22.2967 41.7502 22.0754C41.5484 21.8541 41.2952 21.7435 40.9985 21.7435" fill="#4A3937"/>
<path d="M44.9709 21.6368C45.3191 21.6368 45.604 21.7435 45.8295 21.9608C46.0511 22.1742 46.1658 22.4509 46.1658 22.7868C46.1658 23.1424 46.055 23.4349 45.8295 23.6601C45.604 23.8894 45.3152 24 44.967 24C44.6188 24 44.3181 23.8894 44.0965 23.672C43.8749 23.4546 43.7642 23.1701 43.7642 22.8144C43.7642 22.6603 43.7919 22.5101 43.8512 22.36C43.9106 22.2098 43.9897 22.0833 44.0886 21.9806C44.1915 21.8739 44.326 21.7909 44.4882 21.7277C44.6465 21.6644 44.8127 21.6328 44.9788 21.6328M44.872 21.7395C44.6148 21.7395 44.4091 21.8265 44.2548 22.0003C44.1044 22.1742 44.0253 22.4074 44.0253 22.7038C44.0253 23.0397 44.1242 23.3242 44.3181 23.5534C44.512 23.7827 44.7494 23.9012 45.0342 23.9012C45.2914 23.9012 45.5051 23.8064 45.6752 23.6206C45.8414 23.4309 45.9284 23.1938 45.9284 22.9053C45.9284 22.5734 45.8256 22.2967 45.6277 22.0754C45.4259 21.8541 45.1727 21.7435 44.876 21.7435" fill="#4A3937"/>
<path d="M48.793 22.8144L49.252 23.4941L49.3034 23.5731C49.4458 23.7826 49.5764 23.8893 49.6991 23.8972H49.7545C49.7742 23.9011 49.7822 23.909 49.7822 23.9249C49.7822 23.9407 49.7545 23.9565 49.707 23.9723C49.6595 23.9841 49.6041 23.992 49.5408 23.992C49.4419 23.992 49.3509 23.9644 49.2718 23.909C49.1926 23.8537 49.1095 23.7628 49.0304 23.6403L48.615 23.008L48.5912 22.9724C48.5635 22.929 48.52 22.9053 48.4606 22.9053H48.2391L48.2035 22.9132C48.2035 22.9132 48.1837 22.9408 48.1837 22.9645V23.5534C48.1837 23.6482 48.1916 23.7154 48.1995 23.751C48.2074 23.7865 48.2312 23.8181 48.2668 23.8458C48.3143 23.8853 48.3894 23.909 48.4883 23.9169C48.5279 23.9209 48.5477 23.9328 48.5516 23.9565C48.5516 23.9802 48.5358 23.9881 48.4963 23.9881C48.4804 23.9881 48.4488 23.9881 48.3973 23.9802C48.3499 23.9762 48.2826 23.9723 48.1837 23.9723H47.9384C47.8988 23.9723 47.8553 23.9723 47.7999 23.9802C47.7564 23.9841 47.7247 23.9881 47.7089 23.9881C47.6812 23.9881 47.6693 23.9762 47.6693 23.9525C47.6693 23.9367 47.6852 23.9249 47.7089 23.9209C47.7999 23.9051 47.8553 23.8656 47.883 23.7984C47.9107 23.7352 47.9225 23.6087 47.9225 23.419V22.0477C47.9225 21.8738 47.8592 21.779 47.7366 21.7552L47.6575 21.7434C47.6218 21.7355 47.606 21.7236 47.606 21.7039C47.606 21.6802 47.6258 21.6683 47.6614 21.6683C47.6693 21.6683 47.7089 21.6683 47.7801 21.6762C47.8197 21.6762 47.8711 21.6802 47.9305 21.6802C47.9819 21.6802 48.0689 21.6802 48.1916 21.6683C48.2826 21.6644 48.3578 21.6604 48.429 21.6604C48.6862 21.6604 48.88 21.7078 49.0067 21.8027C49.1372 21.8975 49.2005 22.0437 49.2005 22.2334C49.2005 22.4824 49.0621 22.676 48.789 22.8144M48.2984 22.7788H48.4883C48.6347 22.7788 48.7495 22.7393 48.8326 22.6563C48.9157 22.5772 48.9592 22.4666 48.9592 22.3283C48.9592 22.1662 48.9038 22.0319 48.789 21.9291C48.6743 21.8264 48.5319 21.7711 48.3538 21.7711C48.2866 21.7711 48.243 21.7829 48.2153 21.8027C48.1916 21.8264 48.1758 21.8619 48.1758 21.9212V22.6563C48.1758 22.7077 48.1837 22.7432 48.1995 22.7551C48.2153 22.7709 48.247 22.7748 48.2984 22.7748" fill="#4A3937"/>
<path d="M53.6794 21.9332V22.6683C53.6834 22.6999 53.7151 22.7117 53.7744 22.7117H54.1701C54.2729 22.7117 54.3481 22.6959 54.3916 22.6643C54.4391 22.6327 54.4668 22.5813 54.4787 22.5062C54.4826 22.4786 54.4945 22.4667 54.5143 22.4667C54.5341 22.4667 54.5459 22.4825 54.542 22.5181L54.5301 22.6841C54.5301 22.7038 54.5301 22.7394 54.5301 22.7868C54.5301 22.9172 54.5301 23.0002 54.538 23.0358C54.538 23.0556 54.538 23.0714 54.538 23.0832C54.538 23.1109 54.5262 23.1227 54.5064 23.1227C54.4826 23.1227 54.4668 23.0951 54.4549 23.0398C54.4431 22.9805 54.4272 22.941 54.4114 22.9212C54.3956 22.9014 54.3719 22.8856 54.3323 22.8777C54.2571 22.858 54.1503 22.8501 54.0039 22.8501C53.8694 22.8501 53.7863 22.8501 53.7467 22.858C53.7071 22.8619 53.6874 22.8777 53.6794 22.8975C53.6755 22.9172 53.6715 22.9528 53.6715 23.0002V23.6207C53.6715 23.7076 53.6953 23.7788 53.7427 23.8301C53.7902 23.8815 53.8535 23.9092 53.9327 23.9092C53.9722 23.9092 53.992 23.921 53.992 23.9408C53.992 23.9645 53.9762 23.9803 53.9406 23.9803C53.9168 23.9803 53.8812 23.9803 53.8377 23.9724C53.8021 23.9685 53.7467 23.9645 53.6755 23.9645H53.4302C53.4025 23.9645 53.3629 23.9645 53.3154 23.9724C53.2759 23.9724 53.2482 23.9724 53.2323 23.9764C53.2007 23.9764 53.1849 23.9685 53.1849 23.9487C53.1849 23.9329 53.2007 23.9171 53.2363 23.9092C53.3075 23.8934 53.355 23.8618 53.3827 23.8183C53.4104 23.7748 53.4223 23.6958 53.4223 23.5891V22.0834C53.4223 21.9767 53.4064 21.8977 53.3708 21.8384C53.3471 21.7989 53.3233 21.7751 53.2956 21.7633C53.268 21.7514 53.2244 21.7396 53.1572 21.7356C53.1295 21.7356 53.1176 21.7238 53.1136 21.708C53.1136 21.6803 53.1334 21.6645 53.1809 21.6645C53.1967 21.6645 53.2284 21.6645 53.2838 21.6724C53.3827 21.6803 53.5489 21.6882 53.7863 21.6882C53.996 21.6882 54.1305 21.6882 54.1938 21.6842L54.4272 21.6724C54.5262 21.6684 54.5934 21.6645 54.6211 21.6566C54.6409 21.6526 54.6607 21.6487 54.6765 21.6487C54.7003 21.6487 54.7121 21.6605 54.7121 21.6882C54.7121 21.7001 54.7121 21.7198 54.7042 21.7435C54.6844 21.8147 54.6765 21.9135 54.6765 22.036C54.6765 22.0873 54.6607 22.115 54.633 22.115C54.6172 22.115 54.6053 22.0992 54.6053 22.0715C54.6053 22.036 54.5974 22.0004 54.5855 21.9648C54.5697 21.9095 54.5539 21.87 54.5301 21.8542C54.5103 21.8384 54.4589 21.8265 54.3877 21.8186L54.1898 21.7989C54.1265 21.7949 54.0474 21.791 53.9524 21.791C53.8298 21.791 53.7507 21.7989 53.723 21.8147C53.6953 21.8305 53.6794 21.87 53.6794 21.9372" fill="#4A3937"/>
<path d="M58.1306 22.9962V22.1347C58.1306 21.9964 58.1108 21.8936 58.0713 21.8343C58.0317 21.7711 57.9644 21.7355 57.8695 21.7276C57.8378 21.7276 57.822 21.7118 57.822 21.6921C57.822 21.6683 57.8339 21.6565 57.8537 21.6565C57.8774 21.6565 57.913 21.6604 57.9605 21.6684C58.004 21.6763 58.0554 21.6802 58.1108 21.6802C58.2374 21.6802 58.3126 21.6802 58.3403 21.6763C58.3799 21.6763 58.4036 21.6723 58.4115 21.6723C58.4313 21.6723 58.4432 21.6842 58.4432 21.7C58.4432 21.7158 58.4313 21.7276 58.4076 21.7395C58.3403 21.7671 58.2968 21.8067 58.277 21.858C58.2572 21.9094 58.2493 22.0003 58.2493 22.1426V22.9685C58.2493 23.2728 58.19 23.506 58.0673 23.668C57.9921 23.7708 57.8813 23.8538 57.7389 23.917C57.5965 23.9763 57.4422 24.0079 57.2799 24.0079C57.09 24.0079 56.9199 23.9723 56.7695 23.8972C56.6192 23.8221 56.5084 23.7233 56.4372 23.5969C56.358 23.4507 56.3185 23.2649 56.3185 23.0318V22.0912C56.3185 21.9726 56.2987 21.8897 56.267 21.8462C56.2354 21.8027 56.1681 21.7711 56.0692 21.7553C56.0376 21.7513 56.0257 21.7395 56.0257 21.7197C56.0257 21.6921 56.0455 21.6802 56.089 21.6802C56.1167 21.6802 56.1563 21.6802 56.2037 21.6802C56.2552 21.6802 56.2908 21.6842 56.3145 21.6842H56.5717C56.5717 21.6842 56.6152 21.6802 56.6667 21.6763C56.7062 21.6763 56.7379 21.6723 56.7537 21.6723C56.7775 21.6723 56.7933 21.6802 56.7933 21.7C56.7933 21.7197 56.7775 21.7355 56.7418 21.7395C56.6785 21.7553 56.635 21.783 56.6113 21.8225C56.5915 21.8659 56.5796 21.9371 56.5796 22.0477V22.9962C56.5796 23.2807 56.6271 23.4862 56.7181 23.6087C56.8447 23.7826 57.0544 23.8696 57.3512 23.8696C57.6163 23.8696 57.8141 23.7984 57.9447 23.6522C58.0752 23.506 58.1425 23.2886 58.1425 22.9962" fill="#4A3937"/>
<path d="M61.0981 22.8144L61.557 23.4941L61.6085 23.5731C61.7509 23.7826 61.8815 23.8893 62.0041 23.8972H62.0595C62.0793 23.9011 62.0872 23.909 62.0872 23.9249C62.0872 23.9407 62.0595 23.9565 62.012 23.9723C61.9646 23.9841 61.9092 23.992 61.8498 23.992C61.7509 23.992 61.6599 23.9644 61.5808 23.909C61.5016 23.8537 61.4186 23.7628 61.3394 23.6403L60.924 23.008L60.9002 22.9724C60.8725 22.929 60.829 22.9053 60.7697 22.9053H60.5481L60.5125 22.9132C60.5125 22.9132 60.4927 22.9408 60.4927 22.9645V23.5534C60.4927 23.6482 60.5006 23.7154 60.5085 23.751C60.5164 23.7865 60.5402 23.8181 60.5758 23.8458C60.6233 23.8853 60.6985 23.909 60.7974 23.9169C60.8369 23.9209 60.8567 23.9328 60.8607 23.9565C60.8607 23.9802 60.8448 23.9881 60.8053 23.9881C60.7895 23.9881 60.7578 23.9881 60.7064 23.9802C60.6589 23.9762 60.5916 23.9723 60.4927 23.9723H60.2474C60.2078 23.9723 60.1643 23.9723 60.1089 23.9802C60.0654 23.9841 60.0337 23.9881 60.0179 23.9881C59.9902 23.9881 59.9783 23.9762 59.9783 23.9525C59.9783 23.9367 59.9942 23.9249 60.0179 23.9209C60.1089 23.9051 60.1643 23.8656 60.192 23.7984C60.2197 23.7352 60.2316 23.6087 60.2316 23.419V22.0477C60.2316 21.8738 60.1683 21.779 60.0456 21.7552L59.9665 21.7434C59.9309 21.7355 59.915 21.7236 59.915 21.7039C59.915 21.6802 59.9348 21.6683 59.9704 21.6683C59.9784 21.6683 60.0179 21.6683 60.0891 21.6762C60.1287 21.6762 60.1801 21.6802 60.2395 21.6802C60.2909 21.6802 60.378 21.6802 60.5006 21.6683C60.5916 21.6644 60.6668 21.6604 60.738 21.6604C60.9952 21.6604 61.1891 21.7078 61.3157 21.8027C61.4463 21.8975 61.5096 22.0437 61.5096 22.2334C61.5096 22.4824 61.3711 22.676 61.0981 22.8144ZM60.6074 22.7788H60.7974C60.9438 22.7788 61.0585 22.7393 61.1416 22.6563C61.2247 22.5772 61.2682 22.4666 61.2682 22.3283C61.2682 22.1662 61.2128 22.0319 61.0981 21.9291C60.9833 21.8264 60.8409 21.7711 60.6628 21.7711C60.5956 21.7711 60.5521 21.7829 60.5244 21.8027C60.5006 21.8264 60.4888 21.8619 60.4888 21.9212V22.6563C60.4888 22.7077 60.4967 22.7432 60.5125 22.7551C60.5283 22.7709 60.56 22.7748 60.6114 22.7748" fill="#4A3937"/>
<path d="M65.4029 22.3205V23.7194C65.4029 23.8459 65.4029 23.921 65.395 23.9487C65.391 23.9763 65.3752 23.9882 65.3475 23.9882C65.3317 23.9882 65.3198 23.9842 65.3079 23.9724L65.2723 23.9289L63.8638 22.3205L63.8479 22.3007C63.8479 22.3007 63.8321 22.2888 63.8242 22.2888C63.8044 22.2888 63.7926 22.3126 63.7926 22.3639V23.6839C63.8044 23.755 63.8242 23.8064 63.8519 23.834C63.8836 23.8617 63.939 23.8815 64.03 23.8973C64.0656 23.9012 64.0853 23.917 64.0853 23.9407C64.0853 23.9605 64.0735 23.9724 64.0497 23.9724C64.0339 23.9724 64.0181 23.9724 63.9983 23.9724C63.9864 23.9724 63.939 23.9684 63.8519 23.9605L63.6818 23.9526H63.6026C63.5591 23.9526 63.5196 23.9566 63.48 23.9645C63.4523 23.9684 63.4325 23.9684 63.4167 23.9684C63.389 23.9684 63.3732 23.9566 63.3692 23.9368C63.3692 23.921 63.385 23.9052 63.4167 23.8973C63.5116 23.8657 63.5749 23.8222 63.6066 23.7669C63.6382 23.7115 63.6541 23.6246 63.6541 23.506V22.3718C63.6541 22.1782 63.6224 22.028 63.5631 21.9174C63.5037 21.8067 63.4127 21.7435 63.298 21.7277C63.2703 21.7237 63.2545 21.7119 63.2545 21.6921C63.2545 21.6723 63.2663 21.6605 63.2901 21.6605C63.294 21.6605 63.3059 21.6605 63.3178 21.6605H63.5235C63.5512 21.6605 63.571 21.6605 63.5868 21.6605C63.6145 21.6605 63.6422 21.6763 63.6699 21.7079L65.2051 23.4468C65.2288 23.4744 65.2446 23.4863 65.2526 23.4863C65.2644 23.4863 65.2684 23.4744 65.2723 23.4547V22.4035L65.2526 22.0201C65.2407 21.9253 65.213 21.8581 65.1695 21.8186C65.1259 21.779 65.0468 21.7514 64.9321 21.7316C64.9004 21.7277 64.8846 21.7119 64.8846 21.6921C64.8846 21.6723 64.9004 21.6605 64.9321 21.6605C64.9479 21.6605 64.9716 21.6605 65.0033 21.6644C65.0785 21.6723 65.1813 21.6763 65.3119 21.6763C65.3831 21.6763 65.4346 21.6763 65.4781 21.6644C65.5137 21.6565 65.5414 21.6526 65.5612 21.6526C65.5889 21.6526 65.6047 21.6644 65.6087 21.6882C65.6087 21.704 65.5968 21.7119 65.577 21.7198C65.5097 21.7356 65.4622 21.7632 65.4425 21.8028C65.4227 21.8423 65.4108 21.9134 65.4108 22.0201V22.3086L65.4029 22.3205Z" fill="#4A3937"/>
<path d="M67.6542 22.1663V23.4151C67.6542 23.5732 67.6621 23.672 67.6819 23.7234C67.7056 23.7787 67.7294 23.8182 67.765 23.842C67.7966 23.8657 67.8481 23.8815 67.9193 23.8933C67.9747 23.9012 68.0024 23.9131 68.0024 23.9328C68.0024 23.9605 67.9866 23.9724 67.9509 23.9724C67.9351 23.9724 67.9114 23.9724 67.8876 23.9684C67.852 23.9645 67.7927 23.9605 67.7096 23.9605H67.4682L67.2704 23.9684C67.2388 23.9684 67.2111 23.9724 67.1913 23.9724C67.1596 23.9724 67.1478 23.9605 67.1478 23.9368C67.1478 23.917 67.1636 23.9052 67.1992 23.9012C67.2823 23.8854 67.3377 23.8578 67.3614 23.8143C67.3851 23.7708 67.397 23.676 67.397 23.5377V22.1071C67.397 21.9687 67.3812 21.8778 67.3495 21.8265C67.3179 21.779 67.2506 21.7474 67.1478 21.7277C67.1121 21.7198 67.0963 21.7079 67.0963 21.6882C67.0963 21.6644 67.1121 21.6526 67.1438 21.6526C67.1517 21.6526 67.1636 21.6526 67.1754 21.6526C67.2585 21.6605 67.3654 21.6684 67.4999 21.6684C67.583 21.6684 67.6542 21.6684 67.7135 21.6644L67.8243 21.6565C67.8441 21.6565 67.8599 21.6565 67.8679 21.6565C67.8995 21.6565 67.9114 21.6684 67.9114 21.6882C67.9114 21.7079 67.8956 21.7237 67.8679 21.7316L67.7808 21.7632C67.6977 21.7949 67.6582 21.9292 67.6582 22.1624" fill="#4A3937"/>
<path d="M71.0332 21.8542H70.5623C70.5148 21.8542 70.4832 21.8621 70.4713 21.8739C70.4595 21.8858 70.4515 21.9213 70.4515 21.9727V23.676C70.4595 23.8064 70.5307 23.8855 70.6731 23.9092C70.7127 23.9171 70.7325 23.9289 70.7325 23.9487C70.7325 23.9724 70.7166 23.9843 70.685 23.9843C70.6731 23.9843 70.6454 23.9843 70.6019 23.9724C70.5821 23.9724 70.5307 23.9684 70.4515 23.9684H70.1983C70.1508 23.9684 70.1113 23.9684 70.0796 23.9724C70.0163 23.9803 69.9807 23.9843 69.9688 23.9843C69.9332 23.9843 69.9174 23.9724 69.9174 23.9487C69.9174 23.9329 69.9372 23.921 69.9728 23.9171C70.0598 23.9052 70.1152 23.8815 70.1469 23.8459C70.1785 23.8104 70.1904 23.7432 70.1904 23.6523V21.953C70.1904 21.9134 70.1825 21.8858 70.1706 21.8779C70.1588 21.87 70.1311 21.8621 70.0875 21.8621H69.6444C69.5534 21.8621 69.4901 21.8818 69.4466 21.9174C69.407 21.953 69.3753 22.0201 69.3516 22.1229C69.3397 22.1664 69.3279 22.1861 69.3081 22.1861C69.2883 22.1861 69.2764 22.1703 69.2764 22.1427C69.2764 22.1189 69.2843 22.0755 69.2962 22.0162C69.312 21.9372 69.32 21.87 69.32 21.8186C69.32 21.7672 69.3239 21.7356 69.3358 21.7159C69.3477 21.6961 69.3714 21.6921 69.411 21.6921H71.2073C71.2666 21.6921 71.3062 21.7 71.318 21.7119C71.3299 21.7238 71.3378 21.7633 71.3378 21.8305C71.3378 21.8976 71.3378 21.9451 71.3457 21.9727C71.3497 22.0122 71.3537 22.036 71.3537 22.0557C71.3537 22.0873 71.3418 22.1071 71.318 22.111C71.2983 22.111 71.2864 22.0952 71.2785 22.0597C71.2626 21.9806 71.2389 21.9293 71.2073 21.9055C71.1756 21.8818 71.1123 21.87 71.0173 21.87" fill="#4A3937"/>
<path d="M74.7405 22.9962V22.1347C74.7405 21.9964 74.7207 21.8936 74.6812 21.8343C74.6416 21.7711 74.5744 21.7355 74.4794 21.7276C74.4477 21.7276 74.4319 21.7118 74.4319 21.6921C74.4319 21.6683 74.4438 21.6565 74.4636 21.6565C74.4873 21.6565 74.5229 21.6604 74.5704 21.6684C74.6139 21.6763 74.6654 21.6802 74.7207 21.6802C74.8474 21.6802 74.9225 21.6802 74.9502 21.6763C74.9898 21.6763 75.0135 21.6723 75.0214 21.6723C75.0412 21.6723 75.0531 21.6842 75.0531 21.7C75.0531 21.7158 75.0412 21.7276 75.0175 21.7395C74.9502 21.7671 74.9067 21.8067 74.8869 21.858C74.8671 21.9094 74.8553 22.0003 74.8553 22.1426V22.9685C74.8553 23.2728 74.7959 23.506 74.6733 23.668C74.5981 23.7708 74.4873 23.8538 74.3449 23.917C74.2024 23.9763 74.0481 24.0079 73.8859 24.0079C73.696 24.0079 73.5258 23.9723 73.3755 23.8972C73.2251 23.8221 73.1144 23.7233 73.0431 23.5969C72.964 23.4507 72.9244 23.2649 72.9244 23.0318V22.0912C72.9244 21.9726 72.9047 21.8897 72.873 21.8462C72.8413 21.8027 72.7741 21.7711 72.6752 21.7553C72.6435 21.7513 72.6317 21.7395 72.6317 21.7197C72.6317 21.6921 72.6514 21.6802 72.695 21.6802C72.7227 21.6802 72.7622 21.6802 72.8097 21.6802C72.8611 21.6802 72.8967 21.6842 72.9205 21.6842H73.1777C73.1777 21.6842 73.2212 21.6802 73.2726 21.6763C73.3122 21.6763 73.3438 21.6723 73.3597 21.6723C73.3834 21.6723 73.3992 21.6802 73.3992 21.7C73.3992 21.7197 73.3834 21.7355 73.3478 21.7395C73.2845 21.7553 73.241 21.783 73.2172 21.8225C73.1974 21.8659 73.1856 21.9371 73.1856 22.0477V22.9962C73.1856 23.2807 73.2331 23.4862 73.3241 23.6087C73.4507 23.7826 73.6604 23.8696 73.9571 23.8696C74.2222 23.8696 74.42 23.7984 74.5506 23.6522C74.6812 23.506 74.7484 23.2886 74.7484 22.9962" fill="#4A3937"/>
<path d="M77.704 22.8144L78.163 23.4941L78.2144 23.5731C78.3569 23.7826 78.4874 23.8893 78.6101 23.8972H78.6655C78.6853 23.9011 78.6932 23.909 78.6932 23.9249C78.6932 23.9407 78.6655 23.9565 78.618 23.9723C78.5705 23.9841 78.5151 23.992 78.4558 23.992C78.3569 23.992 78.2659 23.9644 78.1867 23.909C78.1076 23.8537 78.0285 23.7628 77.9454 23.6403L77.5299 23.008L77.5062 22.9724C77.4785 22.929 77.435 22.9053 77.3756 22.9053H77.1541L77.1184 22.9132C77.1184 22.9132 77.0987 22.9408 77.0987 22.9645V23.5534C77.0987 23.6482 77.1066 23.7154 77.1145 23.751C77.1224 23.7865 77.1461 23.8181 77.1818 23.8458C77.2292 23.8853 77.3044 23.909 77.4033 23.9169C77.4429 23.9209 77.4627 23.9328 77.4666 23.9565C77.4666 23.9802 77.4508 23.9881 77.4112 23.9881C77.3954 23.9881 77.3638 23.9881 77.3123 23.9802C77.2648 23.9762 77.1976 23.9723 77.0987 23.9723H76.8534C76.8138 23.9723 76.7703 23.9723 76.7149 23.9802C76.6713 23.9841 76.6397 23.9881 76.6239 23.9881C76.5962 23.9881 76.5843 23.9762 76.5843 23.9525C76.5843 23.9367 76.6001 23.9249 76.6239 23.9209C76.7149 23.9051 76.7703 23.8656 76.798 23.7984C76.8257 23.7352 76.8375 23.6087 76.8375 23.419V22.0477C76.8375 21.8738 76.7742 21.779 76.6516 21.7552L76.5724 21.7434C76.5368 21.7355 76.521 21.7236 76.521 21.7039C76.521 21.6802 76.5408 21.6683 76.5764 21.6683C76.5843 21.6683 76.6239 21.6683 76.6951 21.6762C76.7347 21.6762 76.7861 21.6802 76.8454 21.6802C76.8969 21.6802 76.9839 21.6802 77.1066 21.6683C77.1976 21.6644 77.2728 21.6604 77.344 21.6604C77.6012 21.6604 77.795 21.7078 77.9216 21.8027C78.0522 21.8975 78.1155 22.0437 78.1155 22.2334C78.1155 22.4824 77.977 22.676 77.704 22.8144ZM77.2134 22.7788H77.4033C77.5497 22.7788 77.6645 22.7393 77.7476 22.6563C77.8306 22.5772 77.8742 22.4666 77.8742 22.3283C77.8742 22.1662 77.8188 22.0319 77.704 21.9291C77.5893 21.8264 77.4468 21.7711 77.2688 21.7711C77.2015 21.7711 77.158 21.7829 77.1303 21.8027C77.1066 21.8264 77.0947 21.8619 77.0947 21.9212V22.6563C77.0947 22.7077 77.1026 22.7432 77.1184 22.7551C77.1343 22.7709 77.1659 22.7748 77.2174 22.7748" fill="#4A3937"/>
<path d="M80.533 21.9412V22.613C80.533 22.6644 80.5369 22.696 80.5488 22.7078C80.5567 22.7197 80.5884 22.7236 80.6359 22.7236H80.893C81.0078 22.7236 81.1027 22.7157 81.17 22.7039C81.2293 22.692 81.2689 22.6762 81.2847 22.6565C81.3006 22.6367 81.3203 22.5893 81.3322 22.5181C81.3362 22.4905 81.352 22.4786 81.3757 22.4786C81.3995 22.4786 81.4074 22.4944 81.4074 22.5221C81.4074 22.53 81.4074 22.5419 81.4074 22.5577C81.3995 22.6644 81.3916 22.7632 81.3916 22.8541C81.3916 22.9212 81.3916 22.9884 81.4034 23.0556C81.4034 23.0793 81.4034 23.0951 81.4034 23.103C81.4034 23.1307 81.3916 23.1426 81.3718 23.1426C81.348 23.1426 81.3322 23.1307 81.3283 23.107L81.3203 23.0596C81.3085 22.9845 81.2808 22.9331 81.2412 22.9094C81.2016 22.8817 81.1344 22.8699 81.0394 22.8699H80.6715C80.6161 22.8699 80.5805 22.8738 80.5607 22.8857C80.5409 22.8975 80.533 22.9173 80.533 22.9529V23.6207C80.533 23.7156 80.5528 23.7749 80.5844 23.7986C80.6161 23.8223 80.7031 23.8341 80.8416 23.8341C81.2768 23.8341 81.5577 23.7353 81.6844 23.5377C81.6962 23.518 81.7081 23.5101 81.7239 23.5061C81.7437 23.5061 81.7556 23.518 81.7556 23.5496C81.7556 23.6207 81.716 23.7077 81.6329 23.8065C81.534 23.925 81.4114 23.9843 81.261 23.9843C81.2293 23.9843 81.1858 23.9843 81.1304 23.9764C80.9168 23.9566 80.7427 23.9448 80.6042 23.9448C80.4103 23.9448 80.2718 23.9527 80.1927 23.9646C80.1492 23.9725 80.1215 23.9764 80.1057 23.9764C80.0701 23.9764 80.0542 23.9646 80.0542 23.9408C80.0542 23.9211 80.0701 23.9092 80.0978 23.9013L80.1611 23.8816C80.2402 23.8579 80.2798 23.7828 80.2798 23.6484V22.1269C80.2798 21.9688 80.2639 21.8582 80.2283 21.8068C80.1927 21.7515 80.1254 21.7238 80.0226 21.7238C79.9909 21.7238 79.9751 21.712 79.9751 21.6922C79.9751 21.6606 79.9988 21.6448 80.0503 21.6448C80.078 21.6448 80.1136 21.6448 80.1611 21.6527C80.3193 21.6685 80.5132 21.6803 80.7348 21.6803C80.8693 21.6803 80.992 21.6803 81.0948 21.6724L81.3322 21.6606C81.3995 21.6606 81.439 21.6566 81.4509 21.6527C81.4826 21.6487 81.5024 21.6448 81.5182 21.6448C81.5538 21.6448 81.5736 21.6606 81.5736 21.6922C81.5736 21.7041 81.5736 21.7159 81.5696 21.7317C81.5696 21.7475 81.5617 21.791 81.5577 21.8661L81.5498 21.9649C81.5459 22.0281 81.538 22.0676 81.534 22.0874C81.5301 22.1032 81.5142 22.1111 81.4984 22.1111C81.4786 22.1111 81.4667 22.0953 81.4667 22.0597V22.0163C81.4667 21.9807 81.4588 21.9451 81.447 21.9135C81.4272 21.8621 81.3837 21.8305 81.3203 21.8147C81.257 21.7989 81.1383 21.791 80.9643 21.791H80.7031C80.6359 21.791 80.5884 21.7989 80.5686 21.8187C80.5488 21.8345 80.5369 21.874 80.5369 21.9333" fill="#4A3937"/>
<path d="M35.8865 0.39917H35.1822L28.2146 11.6187V11.591H27.9179L21.7257 0.39917H21.0215H20.5427L18.4576 16.2464H19.0392L20.9779 1.50176L26.996 12.4565H28.1988L34.925 1.74677L36.6462 16.2464H37.9716L35.8865 0.39917Z" fill="#4A3937"/>
<path d="M13.5593 16.2977L11.0943 13.4681C11.7986 12.3418 12.1863 10.7966 12.1863 8.95505H11.2367C11.2367 10.3817 11.0191 11.836 10.5641 12.8595L7.68764 9.55969H6.69452L10.1684 13.5511C9.75695 14.136 9.04871 14.9224 8.40378 15.3532C7.48981 15.9657 6.4136 16.3807 5.43236 16.3807C4.15437 16.3807 2.88826 15.7523 2.0811 14.8987C1.29769 14.0688 1.09591 13.0927 1.09591 11.8992C1.09591 10.9033 1.36891 9.60711 2.54403 8.42944C3.24039 7.7339 3.80619 7.22016 5.3651 6.5997C7.71929 5.67891 9.26633 4.82529 9.26633 3.05878C9.26633 2.10637 8.79549 1.35946 8.19013 0.814095C7.58476 0.272682 6.76574 0 5.74494 0C4.72413 0 3.92885 0.264779 3.26413 0.794336C2.5836 1.37132 2.15628 2.01548 2.15628 3.05878C2.15628 3.4935 2.4095 4.24041 2.91595 4.89643C3.31953 5.41808 4.32451 6.5997 4.32451 6.5997C1.61027 7.82875 0.0592707 9.6822 -7.85822e-05 11.9229C-0.0317316 13.3575 0.478672 14.5312 1.53113 15.4362C2.52029 16.2977 3.80223 16.7285 5.37697 16.7285C7.28802 16.7285 9.24259 15.7721 10.6353 14.0886L12.5543 16.2938H13.5553L13.5593 16.2977ZM3.29974 4.27598C2.89617 3.59625 2.82495 3.13387 2.82495 2.82562C2.82495 2.28421 2.99904 1.66771 3.59649 1.07097C4.10689 0.561172 5.01692 0.248971 5.74889 0.248971C6.54417 0.248971 7.29989 0.462374 7.92899 1.07887C8.24948 1.39108 8.58183 2.07081 8.58183 2.81377C8.58183 3.47769 8.28509 4.25226 7.70346 4.80948C7.35528 5.1533 6.92005 5.41018 6.56396 5.61963C6.47295 5.67495 5.71328 6.03458 5.48776 6.12943C5.47589 6.13338 5.18705 6.24798 5.02087 6.31121C5.02087 6.31121 3.7508 5.03079 3.29974 4.27598Z" fill="#4A3937"/>
<path d="M54.0593 2.7704C52.809 1.21729 50.981 0.521757 48.5714 0.438766C48.4606 0.434814 48.3538 0.434814 48.247 0.434814C48.1402 0.434814 48.0531 0.434814 47.9423 0.438766C45.5367 0.521757 43.6969 1.21334 42.4347 2.7704C41.3071 4.16938 40.7413 6.03468 40.7413 8.36631C40.7413 10.6979 41.3071 12.5633 42.4347 13.9622C43.685 15.5153 45.513 16.2109 47.9225 16.2939C48.0333 16.2978 48.1402 16.2978 48.247 16.2978C48.3538 16.2978 48.4409 16.2978 48.5516 16.2939C50.9573 16.2109 52.7971 15.5193 54.0593 13.9622C55.1869 12.5633 55.7527 10.6979 55.7527 8.36631C55.7527 6.03468 55.1869 4.16938 54.0593 2.7704ZM52.8644 13.4722C51.804 14.8672 50.2609 16.0014 48.2351 16.0014C46.2093 16.0014 44.686 14.8712 43.6256 13.4722C42.6484 12.172 42.1577 10.4687 42.1577 8.36236C42.1577 6.24413 42.6484 4.54086 43.6256 3.25253C44.686 1.8575 46.2291 0.723304 48.2549 0.723304C50.2649 0.723304 51.804 1.85355 52.8644 3.25253C53.8416 4.55271 54.3323 6.25599 54.3323 8.36236C54.3323 10.4806 53.8416 12.1839 52.8644 13.4722Z" fill="#4A3937"/>
<path d="M68.0617 9.3028C66.942 8.70606 64.94 8.25159 63.8835 7.99076C62.0516 7.54024 61.0466 6.87632 60.5125 6.44951C59.8003 5.87253 59.4482 5.1849 59.4482 4.39452C59.4482 3.29193 60.0298 2.14983 60.8844 1.55704C61.6045 1.04329 62.3642 0.723183 63.5037 0.723183C64.6432 0.723183 65.8302 1.02748 66.6453 1.64003C67.5672 2.33161 67.9945 3.65156 68.0301 4.8806H69.4822C69.3991 3.45396 68.8531 2.35137 67.8322 1.57285C66.847 0.794318 65.5572 0.454453 63.9073 0.40703C63.7886 0.40703 63.3415 0.403078 63.2307 0.40703C61.7311 0.474212 60.5006 0.738991 59.5471 1.40291C58.5144 2.0945 57.9961 3.09038 57.9961 4.39056C57.9961 5.42201 58.368 6.3191 59.2305 6.91189C59.9902 7.43749 61.0308 7.79712 63.0368 8.29111C63.2307 8.33458 66.3089 9.16843 66.8431 9.47668C67.9232 10.0695 68.4653 10.9547 68.4653 12.1284C68.4653 13.3021 68.1448 14.0174 67.219 14.8118C66.0874 15.7839 65.0824 15.9855 63.8835 15.9894C62.4829 15.9894 61.2247 15.3729 60.3898 14.6418C59.4956 13.8594 59.1316 12.6698 59.0367 11.342H57.5609C57.6756 12.8951 58.2533 14.1044 59.3057 14.9659C60.3384 15.8551 61.747 16.2621 63.4958 16.3016C63.6184 16.3016 64.0655 16.3016 64.1724 16.3016C65.85 16.2503 67.1952 15.9499 68.2437 15.2425C69.3912 14.4521 69.9649 13.3496 69.9649 11.9348C69.9649 10.6623 69.3081 9.95882 68.0657 9.2949" fill="#4A3937"/>
<path d="M82.4085 9.3028C81.2887 8.70606 79.2867 8.25159 78.2303 7.99076C76.3984 7.54024 75.3934 6.87632 74.8592 6.44951C74.147 5.87253 73.7949 5.1849 73.7949 4.39452C73.7949 3.29193 74.3765 2.14983 75.2312 1.55704C75.9473 1.04329 76.7109 0.723183 77.8504 0.723183C78.9899 0.723183 80.1769 1.02748 80.992 1.64003C81.9139 2.33161 82.3412 3.65156 82.3768 4.8806H83.8289C83.7458 3.45396 83.1998 2.35137 82.179 1.57285C81.1938 0.794318 79.9039 0.454453 78.254 0.40703C78.1353 0.40703 77.6882 0.403078 77.5774 0.40703C76.0779 0.474212 74.8474 0.738991 73.8938 1.40291C72.8611 2.0945 72.3428 3.09038 72.3428 4.39056C72.3428 5.42201 72.7147 6.3191 73.5773 6.91189C74.337 7.43749 75.3775 7.79712 77.3836 8.29111C77.5774 8.33458 80.6557 9.16843 81.1898 9.47668C82.27 10.0695 82.812 10.9547 82.812 12.1284C82.812 13.3021 82.4916 14.0174 81.5657 14.8118C80.4341 15.7839 79.4291 15.9855 78.2303 15.9894C76.8296 15.9894 75.5714 15.3729 74.7366 14.6418C73.8424 13.8594 73.4784 12.6698 73.3834 11.342H71.9076C72.0223 12.8951 72.6 14.1044 73.6525 14.9659C74.6851 15.8551 76.0937 16.2621 77.8465 16.3016C77.9691 16.3016 78.4162 16.3016 78.5231 16.3016C80.2007 16.2503 81.542 15.9499 82.5944 15.2425C83.7418 14.4521 84.3156 13.3496 84.3156 11.9348C84.3156 10.6623 83.6588 9.95882 82.4164 9.2949" fill="#4A3937"/>
</g>
<defs>
<clipPath id="clip0_2001_876">
<rect width="84.3077" height="24" fill="white"/>
</clipPath>
</defs>
</svg>
