<svg  viewBox="0 0 343 80" fill="none" xmlns="http://www.w3.org/2000/svg">
<g clip-path="url(#clip0_2005_406)">
<path d="M159.682 1.00146H158.391L145.569 21.0395V20.9893H145.024L133.626 1.00146H132.334H131.447L127.617 29.3034H128.682L132.252 2.9708L143.323 22.5337H145.54L157.915 3.40248L161.085 29.3034H163.521L159.682 1.00146Z" fill="white"/>
<path d="M118.499 29.6464L114.043 24.4776C115.319 22.4204 116.019 19.5929 116.019 16.2281H114.303C114.303 18.8313 113.909 21.4927 113.084 23.3651L107.888 17.3354H106.096L112.374 24.6282C111.632 25.6979 110.352 27.1305 109.184 27.9195C107.529 29.0371 105.585 29.7987 103.81 29.7987C101.504 29.7987 99.2139 28.6486 97.7581 27.0911C96.3412 25.5781 95.9769 23.793 95.9769 21.6125C95.9769 19.7915 96.4701 17.421 98.5936 15.2748C99.8512 14.0014 100.878 13.0652 103.693 11.9322C107.944 10.248 110.745 8.69056 110.745 5.46092C110.745 3.7203 109.896 2.35451 108.796 1.36183C107.7 0.367437 106.224 -0.130615 104.376 -0.130615C102.529 -0.130615 101.092 0.353745 99.8901 1.31904C98.658 2.36992 97.8886 3.54915 97.8886 5.45236C97.8886 6.24993 98.3445 7.61059 99.2631 8.81379C99.9918 9.76711 101.807 11.9288 101.807 11.9288C96.9005 14.1726 94.099 17.5597 93.9957 21.6553C93.9363 24.2774 94.86 26.4185 96.7632 28.0735C98.5529 29.6464 100.868 30.4354 103.714 30.4354C107.169 30.4354 110.698 28.6914 113.216 25.6141L116.687 29.6464H118.492H118.499ZM99.9613 7.67905C99.2292 6.43478 99.1021 5.58928 99.1021 5.03133C99.1021 4.04036 99.419 2.91418 100.495 1.82736C101.415 0.898008 103.061 0.324649 104.383 0.324649C105.818 0.324649 107.19 0.711453 108.325 1.83763C108.901 2.40928 109.508 3.65356 109.508 5.00737C109.508 6.22255 108.974 7.63284 107.918 8.65291C107.29 9.28275 106.503 9.74828 105.857 10.1334C105.695 10.2309 104.32 10.8916 103.914 11.0644C103.892 11.073 103.37 11.2784 103.071 11.3948C103.071 11.3948 100.773 9.05511 99.963 7.67734L99.9613 7.67905Z" fill="white"/>
<path d="M193.932 5.25161C191.561 2.42159 188.085 1.15831 183.517 1.00828C183.307 1.00146 183.1 1.00146 182.899 1.00146C182.698 1.00146 182.529 1.00146 182.324 1.00828C177.755 1.16342 174.266 2.42159 171.866 5.25161C169.722 7.79863 168.651 11.1912 168.651 15.4363C168.651 19.6813 169.722 23.0739 171.866 25.6209C174.236 28.451 177.711 29.7125 182.279 29.8626C182.49 29.8694 182.696 29.8694 182.897 29.8694C183.098 29.8694 183.269 29.8694 183.472 29.8626C188.041 29.7091 191.53 28.4493 193.93 25.6209C196.074 23.0739 197.146 19.6813 197.146 15.4363C197.146 11.1912 196.074 7.79863 193.93 5.25161H193.932ZM191.666 24.7327C189.654 27.2746 186.722 29.3341 182.879 29.3341C179.062 29.3341 176.141 27.2746 174.131 24.7327C172.274 22.3681 171.346 19.2687 171.346 15.4363H171.344C171.344 11.5782 172.274 8.47886 174.132 6.13983C176.142 3.59792 179.075 1.53849 182.919 1.53849C186.736 1.53849 189.657 3.59792 191.667 6.13983C193.524 8.50614 194.452 11.6038 194.452 15.4363C194.452 19.2943 193.523 22.3937 191.666 24.7327Z" fill="white"/>
<path d="M219.868 17.1502C217.808 16.067 214.133 15.2439 212.191 14.7695C208.826 13.9498 206.973 12.7442 205.993 11.9738C204.686 10.9229 204.033 9.67813 204.033 8.2429C204.033 6.2414 205.1 4.17017 206.675 3.09375C207.996 2.16357 209.392 1.58029 211.487 1.58029C213.583 1.58029 215.762 2.13636 217.265 3.24509C218.958 4.50177 219.747 6.89609 219.807 9.12716H222.474C222.324 6.53559 221.315 4.53578 219.444 3.12436C217.634 1.71293 215.26 1.09225 212.23 1.00722C212.011 1.00042 211.193 0.998719 210.989 1.00722C208.232 1.12796 205.97 1.6109 204.219 2.81657C202.32 4.07324 201.368 5.88259 201.368 8.2429C201.368 10.1152 202.053 11.7409 203.64 12.8207C205.038 13.7713 206.951 14.426 210.633 15.3221C210.991 15.3987 216.644 16.9138 217.625 17.4767C219.612 18.5548 220.607 20.1584 220.607 22.2874C220.607 24.4165 220.019 25.714 218.318 27.1594C216.239 28.9262 214.39 29.2935 212.187 29.2986C209.611 29.3054 207.301 28.1797 205.767 26.8533C204.121 25.4283 203.456 23.2737 203.278 20.8624H200.565C200.772 23.6852 201.841 25.8772 203.773 27.4417C205.672 29.0572 208.261 29.7952 211.477 29.8649C211.706 29.87 212.525 29.8717 212.718 29.8649C215.805 29.7748 218.272 29.2255 220.202 27.9433C222.31 26.5064 223.361 24.5066 223.361 21.9405C223.361 19.6312 222.155 18.3524 219.868 17.1502Z" fill="white"/>
<path d="M246.085 17.1502C244.025 16.067 240.35 15.2439 238.407 14.7695C235.041 13.9498 233.19 12.7442 232.209 11.9738C230.902 10.9229 230.249 9.67813 230.249 8.2429C230.249 6.2414 231.316 4.17017 232.891 3.09375C234.21 2.16357 235.608 1.58029 237.704 1.58029C239.8 1.58029 241.979 2.13636 243.48 3.24509C245.173 4.50177 245.964 6.89609 246.023 9.12716H248.689C248.539 6.53559 247.531 4.53578 245.659 3.12436C243.849 1.71293 241.475 1.09225 238.445 1.00722C238.226 1.00042 237.407 0.998719 237.206 1.00722C234.446 1.12796 232.185 1.6109 230.435 2.81657C228.534 4.07324 227.582 5.88259 227.582 8.2429C227.582 10.1152 228.267 11.7409 229.854 12.8207C231.252 13.7713 233.165 14.426 236.847 15.3221C237.206 15.3987 242.86 16.9138 243.84 17.4767C245.828 18.5548 246.822 20.1584 246.822 22.2874C246.822 24.4165 246.235 25.714 244.533 27.1594C242.455 28.9262 240.605 29.2935 238.402 29.2986C235.825 29.3054 233.515 28.1797 231.981 26.8533C230.335 25.4283 229.67 23.2737 229.492 20.8624H226.781C226.988 23.6852 228.056 25.8772 229.989 27.4417C231.886 29.0572 234.477 29.7952 237.694 29.8649C237.923 29.87 238.742 29.8717 238.935 29.8649C242.022 29.7748 244.487 29.2255 246.417 27.9433C248.525 26.5064 249.577 24.5066 249.577 21.9405C249.577 19.6312 248.37 18.3524 246.083 17.1502H246.085Z" fill="white"/>
</g>
<path d="M48.5839 57H54.0639V57.58C53.7439 57.7 53.4239 57.8067 53.1039 57.9C52.7839 57.98 52.4639 58.04 52.1439 58.08V69.96H56.7439L57.9239 66.74H58.4439C58.4839 67.02 58.5172 67.3467 58.5439 67.72C58.5839 68.08 58.6106 68.46 58.6239 68.86C58.6506 69.2467 58.6639 69.6267 58.6639 70C58.6639 70.3733 58.6572 70.7067 58.6439 71H48.5839V70.42C48.9039 70.2733 49.1972 70.1667 49.4639 70.1C49.7306 70.0333 49.9839 69.98 50.2239 69.94V58.08C49.9172 58.0267 49.6239 57.96 49.3439 57.88C49.0639 57.7867 48.8106 57.6867 48.5839 57.58V57ZM60.5205 67.04C60.5205 66.2 60.5405 65.38 60.5805 64.58C60.6205 63.7667 60.6405 62.96 60.6405 62.16L59.3205 62V61.48C59.7471 61.32 60.1805 61.18 60.6205 61.06C61.0738 60.94 61.5138 60.84 61.9405 60.76H62.4405C62.4405 61.76 62.4205 62.7533 62.3805 63.74C62.3405 64.7267 62.3205 65.7067 62.3205 66.68C62.3205 67.2 62.3471 67.6667 62.4005 68.08C62.4671 68.4933 62.5738 68.84 62.7205 69.12C62.8805 69.4 63.0938 69.62 63.3605 69.78C63.6271 69.9267 63.9671 70 64.3805 70C64.9805 70 65.4805 69.7867 65.8805 69.36C66.2938 68.92 66.6138 68.3533 66.8405 67.66V62.16L65.5405 62V61.48C65.9538 61.32 66.3805 61.18 66.8205 61.06C67.2738 60.94 67.7138 60.84 68.1405 60.76H68.6405V69.86L69.9605 70.02V70.44C69.5738 70.6133 69.1805 70.7667 68.7805 70.9C68.3938 71.0333 67.9871 71.1333 67.5605 71.2H67.0605L66.9205 68.82H66.8405C66.7738 69.1 66.6538 69.3867 66.4805 69.68C66.3205 69.96 66.1071 70.22 65.8405 70.46C65.5738 70.6867 65.2671 70.8733 64.9205 71.02C64.5871 71.1667 64.2205 71.24 63.8205 71.24C63.2871 71.24 62.8138 71.1733 62.4005 71.04C62.0005 70.92 61.6605 70.7 61.3805 70.38C61.1005 70.06 60.8871 69.6333 60.7405 69.1C60.5938 68.5533 60.5205 67.8667 60.5205 67.04ZM76.4248 65.64L79.5848 70.02C79.7715 70.0867 79.9515 70.16 80.1248 70.24C80.3115 70.3067 80.4848 70.3933 80.6448 70.5V71H76.5448V70.52C76.7315 70.4133 76.9048 70.32 77.0648 70.24C77.2248 70.1467 77.3848 70.0733 77.5448 70.02L75.3248 66.74L73.0848 70.02C73.2715 70.0867 73.4448 70.16 73.6048 70.24C73.7648 70.32 73.9248 70.4067 74.0848 70.5V71H70.6648V70.5C71.0382 70.2733 71.4115 70.1133 71.7848 70.02L74.7648 66.04L71.7648 62C71.5782 61.9333 71.4048 61.8667 71.2448 61.8C71.0982 61.72 70.9448 61.6267 70.7848 61.52V61H74.8048V61.5C74.6448 61.6067 74.4848 61.7067 74.3248 61.8C74.1782 61.88 74.0115 61.9467 73.8248 62L75.9048 65L77.9448 62C77.4915 61.8533 77.1582 61.6933 76.9448 61.52V61H80.2848V61.52C80.0315 61.6933 79.6582 61.8533 79.1648 62L76.4248 65.64ZM89.5216 69.6C89.4149 69.8267 89.2482 70.04 89.0216 70.24C88.7949 70.44 88.5349 70.6133 88.2416 70.76C87.9482 70.9067 87.6282 71.02 87.2816 71.1C86.9349 71.1933 86.5816 71.24 86.2216 71.24C85.4349 71.24 84.7416 71.12 84.1416 70.88C83.5416 70.6267 83.0416 70.2733 82.6416 69.82C82.2416 69.3533 81.9349 68.8 81.7216 68.16C81.5216 67.52 81.4216 66.8 81.4216 66C81.4216 64.2933 81.8149 62.9933 82.6016 62.1C83.3882 61.2067 84.5016 60.76 85.9416 60.76C86.4082 60.76 86.8682 60.8267 87.3216 60.96C87.7749 61.08 88.1749 61.2867 88.5216 61.58C88.8816 61.8733 89.1682 62.2667 89.3816 62.76C89.6082 63.24 89.7216 63.84 89.7216 64.56C89.7216 64.7867 89.7082 65.02 89.6816 65.26C89.6682 65.4867 89.6349 65.7333 89.5816 66H83.3416C83.3416 66.56 83.4082 67.0867 83.5416 67.58C83.6882 68.06 83.9016 68.48 84.1816 68.84C84.4616 69.2 84.8149 69.4867 85.2416 69.7C85.6682 69.9 86.1682 70 86.7416 70C87.2082 70 87.6816 69.9333 88.1616 69.8C88.6416 69.6667 89.0016 69.4933 89.2416 69.28L89.5216 69.6ZM85.8616 61.64C85.1016 61.64 84.5216 61.9 84.1216 62.42C83.7216 62.9267 83.4816 63.8267 83.4016 65.12H87.8016C87.8149 65 87.8216 64.8867 87.8216 64.78C87.8349 64.66 87.8416 64.5467 87.8416 64.44C87.8416 63.5867 87.6816 62.9067 87.3616 62.4C87.0416 61.8933 86.5416 61.64 85.8616 61.64ZM102.983 69.02C102.917 69.3133 102.803 69.5933 102.643 69.86C102.483 70.1267 102.283 70.3667 102.043 70.58C101.817 70.78 101.55 70.94 101.243 71.06C100.95 71.18 100.63 71.24 100.283 71.24C98.9634 71.24 97.9768 70.82 97.3234 69.98C96.6701 69.14 96.3434 67.8333 96.3434 66.06C96.3434 64.3533 96.7568 63.0533 97.5834 62.16C98.4234 61.2667 99.5501 60.82 100.963 60.82C101.457 60.82 101.843 60.8467 102.123 60.9C102.403 60.94 102.71 61.02 103.043 61.14V57.36L101.523 57.2V56.68C101.91 56.52 102.357 56.38 102.863 56.26C103.383 56.14 103.877 56.04 104.343 55.96H104.843V69.86L106.163 70.02V70.44C105.777 70.6267 105.377 70.7867 104.963 70.92C104.55 71.0533 104.143 71.1467 103.743 71.2H103.243L103.063 69.02H102.983ZM100.683 70C101.337 70 101.857 69.7933 102.243 69.38C102.63 68.9667 102.897 68.4067 103.043 67.7V62.06C102.817 61.9267 102.55 61.8333 102.243 61.78C101.937 61.7267 101.543 61.7 101.063 61.7C100.157 61.7 99.4634 62.1 98.9834 62.9C98.5034 63.6867 98.2634 64.74 98.2634 66.06C98.2634 66.6067 98.3101 67.12 98.4034 67.6C98.4968 68.0667 98.6434 68.48 98.8434 68.84C99.0434 69.2 99.2901 69.4867 99.5834 69.7C99.8901 69.9 100.257 70 100.683 70ZM115.537 69.6C115.431 69.8267 115.264 70.04 115.037 70.24C114.811 70.44 114.551 70.6133 114.257 70.76C113.964 70.9067 113.644 71.02 113.297 71.1C112.951 71.1933 112.597 71.24 112.237 71.24C111.451 71.24 110.757 71.12 110.157 70.88C109.557 70.6267 109.057 70.2733 108.657 69.82C108.257 69.3533 107.951 68.8 107.737 68.16C107.537 67.52 107.437 66.8 107.437 66C107.437 64.2933 107.831 62.9933 108.617 62.1C109.404 61.2067 110.517 60.76 111.957 60.76C112.424 60.76 112.884 60.8267 113.337 60.96C113.791 61.08 114.191 61.2867 114.537 61.58C114.897 61.8733 115.184 62.2667 115.397 62.76C115.624 63.24 115.737 63.84 115.737 64.56C115.737 64.7867 115.724 65.02 115.697 65.26C115.684 65.4867 115.651 65.7333 115.597 66H109.357C109.357 66.56 109.424 67.0867 109.557 67.58C109.704 68.06 109.917 68.48 110.197 68.84C110.477 69.2 110.831 69.4867 111.257 69.7C111.684 69.9 112.184 70 112.757 70C113.224 70 113.697 69.9333 114.177 69.8C114.657 69.6667 115.017 69.4933 115.257 69.28L115.537 69.6ZM111.877 61.64C111.117 61.64 110.537 61.9 110.137 62.42C109.737 62.9267 109.497 63.8267 109.417 65.12H113.817C113.831 65 113.837 64.8867 113.837 64.78C113.851 64.66 113.857 64.5467 113.857 64.44C113.857 63.5867 113.697 62.9067 113.377 62.4C113.057 61.8933 112.557 61.64 111.877 61.64ZM122.576 68.72C122.576 68.3467 122.456 68.0333 122.216 67.78C121.989 67.5133 121.696 67.2667 121.336 67.04C120.976 66.8133 120.589 66.5933 120.176 66.38C119.776 66.1667 119.396 65.92 119.036 65.64C118.676 65.3467 118.376 65.0133 118.136 64.64C117.909 64.2667 117.796 63.8067 117.796 63.26C117.796 62.9 117.876 62.5667 118.036 62.26C118.209 61.9533 118.436 61.6933 118.716 61.48C118.996 61.2533 119.322 61.08 119.696 60.96C120.069 60.8267 120.469 60.76 120.896 60.76C121.616 60.76 122.202 60.8 122.656 60.88C123.122 60.96 123.569 61.0733 123.996 61.22C123.942 61.6467 123.876 62.08 123.796 62.52C123.729 62.9467 123.629 63.3867 123.496 63.84H122.996L122.236 61.8C122.076 61.7333 121.896 61.6933 121.696 61.68C121.496 61.6533 121.289 61.64 121.076 61.64C120.836 61.64 120.622 61.6867 120.436 61.78C120.262 61.86 120.109 61.9667 119.976 62.1C119.856 62.2333 119.762 62.3867 119.696 62.56C119.629 62.7333 119.596 62.9067 119.596 63.08C119.596 63.44 119.709 63.7533 119.936 64.02C120.176 64.2733 120.476 64.5133 120.836 64.74C121.196 64.9533 121.576 65.1667 121.976 65.38C122.389 65.5933 122.776 65.8333 123.136 66.1C123.496 66.3667 123.789 66.68 124.016 67.04C124.256 67.3867 124.376 67.8067 124.376 68.3C124.376 68.7533 124.276 69.16 124.076 69.52C123.889 69.88 123.622 70.1867 123.276 70.44C122.942 70.6933 122.549 70.8867 122.096 71.02C121.656 71.1667 121.182 71.24 120.676 71.24C120.102 71.24 119.576 71.1867 119.096 71.08C118.616 70.9867 118.116 70.8467 117.596 70.66C117.622 70.18 117.682 69.72 117.776 69.28C117.869 68.8267 117.989 68.3933 118.136 67.98H118.636L119.516 70.16C119.662 70.2667 119.836 70.3267 120.036 70.34C120.249 70.3533 120.442 70.36 120.616 70.36C121.202 70.36 121.676 70.2 122.036 69.88C122.396 69.56 122.576 69.1733 122.576 68.72ZM130.588 71H126.148V70.5C126.348 70.3933 126.555 70.3067 126.768 70.24C126.981 70.16 127.215 70.0867 127.468 70.02V62.16L126.148 62V61.48C126.535 61.32 126.955 61.18 127.408 61.06C127.861 60.94 128.315 60.84 128.768 60.76H129.268V70.02C129.535 70.0867 129.775 70.16 129.988 70.24C130.201 70.3067 130.401 70.3933 130.588 70.5V71ZM127.088 57.6C127.088 57.24 127.201 56.9533 127.428 56.74C127.668 56.5267 127.981 56.42 128.368 56.42C128.755 56.42 129.061 56.5267 129.288 56.74C129.515 56.9533 129.628 57.24 129.628 57.6C129.628 57.96 129.515 58.2467 129.288 58.46C129.061 58.66 128.755 58.76 128.368 58.76C127.981 58.76 127.668 58.66 127.428 58.46C127.201 58.2467 127.088 57.96 127.088 57.6ZM136.284 60.76C137.004 60.76 137.61 60.8333 138.104 60.98C138.597 61.1133 139.01 61.3267 139.344 61.62C140.13 61.0867 140.95 60.7 141.804 60.46C141.91 60.6067 141.984 60.7867 142.024 61C142.077 61.2133 142.104 61.4133 142.104 61.6L141.844 62.08H139.744C140.077 62.56 140.244 63.1933 140.244 63.98C140.244 64.94 139.904 65.72 139.224 66.32C138.557 66.92 137.577 67.22 136.284 67.22C136.03 67.22 135.824 67.2133 135.664 67.2C135.504 67.1867 135.324 67.1667 135.124 67.14C135.057 67.26 134.977 67.3933 134.884 67.54C134.804 67.6867 134.764 67.84 134.764 68C134.764 68.2667 134.917 68.48 135.224 68.64C135.53 68.7867 135.91 68.92 136.364 69.04C136.83 69.16 137.33 69.2867 137.864 69.42C138.41 69.54 138.917 69.7133 139.384 69.94C139.85 70.1533 140.237 70.44 140.544 70.8C140.864 71.1467 141.03 71.6 141.044 72.16C141.057 72.64 140.944 73.0733 140.704 73.46C140.477 73.8467 140.157 74.1667 139.744 74.42C139.33 74.6867 138.83 74.8867 138.244 75.02C137.67 75.1667 137.037 75.24 136.344 75.24C134.89 75.24 133.79 74.9933 133.044 74.5C132.31 74.0067 131.944 73.3867 131.944 72.64C131.944 72.28 131.997 71.9667 132.104 71.7C132.224 71.4333 132.39 71.2 132.604 71C132.817 70.8 133.084 70.6267 133.404 70.48C133.724 70.32 134.09 70.1733 134.504 70.04C134.21 69.9067 133.964 69.7267 133.764 69.5C133.577 69.26 133.484 68.9733 133.484 68.64C133.484 68.3333 133.61 68.0333 133.864 67.74C134.13 67.4333 134.397 67.1933 134.664 67.02C133.904 66.82 133.317 66.44 132.904 65.88C132.504 65.32 132.304 64.6867 132.304 63.98C132.304 63.5267 132.39 63.1067 132.564 62.72C132.737 62.32 132.99 61.9733 133.324 61.68C133.657 61.3867 134.07 61.16 134.564 61C135.057 60.84 135.63 60.76 136.284 60.76ZM139.244 72.62C139.244 72.1933 139.097 71.8533 138.804 71.6C138.524 71.3467 138.17 71.14 137.744 70.98C137.317 70.82 136.857 70.6867 136.364 70.58C135.87 70.4733 135.41 70.3533 134.984 70.22C134.477 70.5267 134.144 70.8467 133.984 71.18C133.824 71.5267 133.744 71.88 133.744 72.24C133.744 72.9467 133.997 73.4733 134.504 73.82C135.01 74.18 135.744 74.36 136.704 74.36C137.197 74.36 137.604 74.3133 137.924 74.22C138.257 74.1267 138.517 74 138.704 73.84C138.904 73.6933 139.044 73.5133 139.124 73.3C139.204 73.0867 139.244 72.86 139.244 72.62ZM134.104 63.98C134.104 64.3 134.137 64.6067 134.204 64.9C134.284 65.18 134.404 65.4267 134.564 65.64C134.737 65.8533 134.964 66.0267 135.244 66.16C135.524 66.28 135.87 66.34 136.284 66.34C137.057 66.34 137.61 66.1133 137.944 65.66C138.277 65.2067 138.444 64.6467 138.444 63.98C138.444 63.26 138.277 62.6933 137.944 62.28C137.624 61.8533 137.07 61.64 136.284 61.64C135.47 61.64 134.904 61.8467 134.584 62.26C134.264 62.66 134.104 63.2333 134.104 63.98ZM153.411 71H149.111V70.5C149.471 70.3133 149.864 70.1533 150.291 70.02V65.28C150.291 64.2667 150.144 63.4667 149.851 62.88C149.558 62.2933 149.024 62 148.251 62C147.918 62 147.604 62.06 147.311 62.18C147.031 62.3 146.778 62.4667 146.551 62.68C146.338 62.88 146.151 63.1133 145.991 63.38C145.831 63.6333 145.704 63.9 145.611 64.18V70.02C146.024 70.1 146.424 70.26 146.811 70.5V71H142.491V70.5C142.824 70.3267 143.264 70.1667 143.811 70.02V62.16L142.491 62V61.48C142.838 61.3333 143.238 61.2 143.691 61.08C144.144 60.96 144.618 60.8533 145.111 60.76H145.611V63H145.631C145.911 62.3867 146.311 61.86 146.831 61.42C147.364 60.98 148.004 60.76 148.751 60.76C149.284 60.76 149.758 60.8267 150.171 60.96C150.598 61.08 150.951 61.3 151.231 61.62C151.511 61.94 151.724 62.3733 151.871 62.92C152.018 63.4533 152.091 64.1333 152.091 64.96V70.02C152.624 70.1133 153.064 70.2733 153.411 70.5V71ZM158.909 61.48C159.416 61.16 159.949 60.9333 160.509 60.8V59.1C160.683 58.9533 160.883 58.8267 161.109 58.72C161.349 58.6 161.583 58.4867 161.809 58.38H162.309V61H165.309V62H162.309V67.8C162.309 68.6 162.436 69.1667 162.689 69.5C162.943 69.8333 163.323 70 163.829 70C164.069 70 164.369 69.9867 164.729 69.96C165.089 69.92 165.396 69.8533 165.649 69.76L165.789 70.06C165.683 70.18 165.529 70.3067 165.329 70.44C165.143 70.5733 164.923 70.7 164.669 70.82C164.429 70.94 164.163 71.04 163.869 71.12C163.576 71.2 163.276 71.24 162.969 71.24C162.169 71.24 161.556 71.0133 161.129 70.56C160.716 70.1067 160.509 69.3733 160.509 68.36V62H158.909V61.48ZM167.571 67.04C167.571 66.2 167.591 65.38 167.631 64.58C167.671 63.7667 167.691 62.96 167.691 62.16L166.371 62V61.48C166.798 61.32 167.231 61.18 167.671 61.06C168.125 60.94 168.565 60.84 168.991 60.76H169.491C169.491 61.76 169.471 62.7533 169.431 63.74C169.391 64.7267 169.371 65.7067 169.371 66.68C169.371 67.2 169.398 67.6667 169.451 68.08C169.518 68.4933 169.625 68.84 169.771 69.12C169.931 69.4 170.145 69.62 170.411 69.78C170.678 69.9267 171.018 70 171.431 70C172.031 70 172.531 69.7867 172.931 69.36C173.345 68.92 173.665 68.3533 173.891 67.66V62.16L172.591 62V61.48C173.005 61.32 173.431 61.18 173.871 61.06C174.325 60.94 174.765 60.84 175.191 60.76H175.691V69.86L177.011 70.02V70.44C176.625 70.6133 176.231 70.7667 175.831 70.9C175.445 71.0333 175.038 71.1333 174.611 71.2H174.111L173.971 68.82H173.891C173.825 69.1 173.705 69.3867 173.531 69.68C173.371 69.96 173.158 70.22 172.891 70.46C172.625 70.6867 172.318 70.8733 171.971 71.02C171.638 71.1667 171.271 71.24 170.871 71.24C170.338 71.24 169.865 71.1733 169.451 71.04C169.051 70.92 168.711 70.7 168.431 70.38C168.151 70.06 167.938 69.6333 167.791 69.1C167.645 68.5533 167.571 67.8667 167.571 67.04ZM182.776 71H178.336V70.5C178.536 70.3933 178.742 70.3067 178.956 70.24C179.169 70.16 179.402 70.0867 179.656 70.02V62.16L178.336 62V61.48C178.722 61.32 179.142 61.18 179.596 61.06C180.049 60.94 180.502 60.84 180.956 60.76H181.456V70.02C181.722 70.0867 181.962 70.16 182.176 70.24C182.389 70.3067 182.589 70.3933 182.776 70.5V71ZM179.276 57.6C179.276 57.24 179.389 56.9533 179.616 56.74C179.856 56.5267 180.169 56.42 180.556 56.42C180.942 56.42 181.249 56.5267 181.476 56.74C181.702 56.9533 181.816 57.24 181.816 57.6C181.816 57.96 181.702 58.2467 181.476 58.46C181.249 58.66 180.942 58.76 180.556 58.76C180.169 58.76 179.856 58.66 179.616 58.46C179.389 58.2467 179.276 57.96 179.276 57.6ZM195.071 71H190.771V70.5C191.131 70.3133 191.525 70.1533 191.951 70.02V65.28C191.951 64.2667 191.805 63.4667 191.511 62.88C191.218 62.2933 190.685 62 189.911 62C189.578 62 189.265 62.06 188.971 62.18C188.691 62.3 188.438 62.4667 188.211 62.68C187.998 62.88 187.811 63.1133 187.651 63.38C187.491 63.6333 187.365 63.9 187.271 64.18V70.02C187.685 70.1 188.085 70.26 188.471 70.5V71H184.151V70.5C184.485 70.3267 184.925 70.1667 185.471 70.02V62.16L184.151 62V61.48C184.498 61.3333 184.898 61.2 185.351 61.08C185.805 60.96 186.278 60.8533 186.771 60.76H187.271V63H187.291C187.571 62.3867 187.971 61.86 188.491 61.42C189.025 60.98 189.665 60.76 190.411 60.76C190.945 60.76 191.418 60.8267 191.831 60.96C192.258 61.08 192.611 61.3 192.891 61.62C193.171 61.94 193.385 62.3733 193.531 62.92C193.678 63.4533 193.751 64.1333 193.751 64.96V70.02C194.285 70.1133 194.725 70.2733 195.071 70.5V71ZM206.366 71H202.086V70.5C202.22 70.42 202.38 70.34 202.566 70.26C202.766 70.1667 203 70.0867 203.266 70.02V65.4C203.266 64.8667 203.24 64.3867 203.186 63.96C203.146 63.5333 203.06 63.18 202.926 62.9C202.806 62.6067 202.626 62.3867 202.386 62.24C202.146 62.08 201.833 62 201.446 62C201.153 62 200.88 62.06 200.626 62.18C200.386 62.3 200.166 62.46 199.966 62.66C199.78 62.86 199.613 63.0867 199.466 63.34C199.333 63.5933 199.226 63.86 199.146 64.14V70.02C199.36 70.0867 199.56 70.16 199.746 70.24C199.946 70.3067 200.14 70.3933 200.326 70.5V71H196.026V70.5C196.213 70.4067 196.42 70.32 196.646 70.24C196.873 70.16 197.106 70.0867 197.346 70.02V62.16L196.026 62V61.48C196.453 61.2933 196.886 61.1467 197.326 61.04C197.78 60.92 198.22 60.8267 198.646 60.76H199.146V63.02H199.166C199.38 62.3933 199.74 61.86 200.246 61.42C200.766 60.98 201.406 60.76 202.166 60.76C202.486 60.76 202.793 60.7933 203.086 60.86C203.38 60.9267 203.653 61.0533 203.906 61.24C204.16 61.4133 204.373 61.66 204.546 61.98C204.72 62.3 204.846 62.7133 204.926 63.22C205.166 62.4867 205.553 61.8933 206.086 61.44C206.62 60.9867 207.286 60.76 208.086 60.76C208.58 60.76 209.006 60.8267 209.366 60.96C209.74 61.08 210.046 61.3 210.286 61.62C210.526 61.94 210.7 62.3733 210.806 62.92C210.926 63.4667 210.986 64.16 210.986 65V70.02C211.44 70.1 211.88 70.26 212.306 70.5V71H208.006V70.5C208.406 70.2867 208.8 70.1267 209.186 70.02V65.04C209.186 64.56 209.16 64.1333 209.106 63.76C209.066 63.3867 208.98 63.0733 208.846 62.82C208.713 62.5533 208.526 62.3533 208.286 62.22C208.046 62.0733 207.726 62 207.326 62C206.686 62 206.186 62.22 205.826 62.66C205.48 63.1 205.226 63.66 205.066 64.34V70.02C205.533 70.1533 205.966 70.3133 206.366 70.5V71ZM221.592 69.6C221.485 69.8267 221.319 70.04 221.092 70.24C220.865 70.44 220.605 70.6133 220.312 70.76C220.019 70.9067 219.699 71.02 219.352 71.1C219.005 71.1933 218.652 71.24 218.292 71.24C217.505 71.24 216.812 71.12 216.212 70.88C215.612 70.6267 215.112 70.2733 214.712 69.82C214.312 69.3533 214.005 68.8 213.792 68.16C213.592 67.52 213.492 66.8 213.492 66C213.492 64.2933 213.885 62.9933 214.672 62.1C215.459 61.2067 216.572 60.76 218.012 60.76C218.479 60.76 218.939 60.8267 219.392 60.96C219.845 61.08 220.245 61.2867 220.592 61.58C220.952 61.8733 221.239 62.2667 221.452 62.76C221.679 63.24 221.792 63.84 221.792 64.56C221.792 64.7867 221.779 65.02 221.752 65.26C221.739 65.4867 221.705 65.7333 221.652 66H215.412C215.412 66.56 215.479 67.0867 215.612 67.58C215.759 68.06 215.972 68.48 216.252 68.84C216.532 69.2 216.885 69.4867 217.312 69.7C217.739 69.9 218.239 70 218.812 70C219.279 70 219.752 69.9333 220.232 69.8C220.712 69.6667 221.072 69.4933 221.312 69.28L221.592 69.6ZM217.932 61.64C217.172 61.64 216.592 61.9 216.192 62.42C215.792 62.9267 215.552 63.8267 215.472 65.12H219.872C219.885 65 219.892 64.8867 219.892 64.78C219.905 64.66 219.912 64.5467 219.912 64.44C219.912 63.5867 219.752 62.9067 219.432 62.4C219.112 61.8933 218.612 61.64 217.932 61.64ZM234.27 71H229.97V70.5C230.33 70.3133 230.724 70.1533 231.15 70.02V65.28C231.15 64.2667 231.004 63.4667 230.71 62.88C230.417 62.2933 229.884 62 229.11 62C228.777 62 228.464 62.06 228.17 62.18C227.89 62.3 227.637 62.4667 227.41 62.68C227.197 62.88 227.01 63.1133 226.85 63.38C226.69 63.6333 226.564 63.9 226.47 64.18V70.02C226.884 70.1 227.284 70.26 227.67 70.5V71H223.35V70.5C223.684 70.3267 224.124 70.1667 224.67 70.02V62.16L223.35 62V61.48C223.697 61.3333 224.097 61.2 224.55 61.08C225.004 60.96 225.477 60.8533 225.97 60.76H226.47V63H226.49C226.77 62.3867 227.17 61.86 227.69 61.42C228.224 60.98 228.864 60.76 229.61 60.76C230.144 60.76 230.617 60.8267 231.03 60.96C231.457 61.08 231.81 61.3 232.09 61.62C232.37 61.94 232.584 62.3733 232.73 62.92C232.877 63.4533 232.95 64.1333 232.95 64.96V70.02C233.484 70.1133 233.924 70.2733 234.27 70.5V71ZM236.145 67.04C236.145 66.2 236.165 65.38 236.205 64.58C236.245 63.7667 236.265 62.96 236.265 62.16L234.945 62V61.48C235.372 61.32 235.805 61.18 236.245 61.06C236.699 60.94 237.139 60.84 237.565 60.76H238.065C238.065 61.76 238.045 62.7533 238.005 63.74C237.965 64.7267 237.945 65.7067 237.945 66.68C237.945 67.2 237.972 67.6667 238.025 68.08C238.092 68.4933 238.199 68.84 238.345 69.12C238.505 69.4 238.719 69.62 238.985 69.78C239.252 69.9267 239.592 70 240.005 70C240.605 70 241.105 69.7867 241.505 69.36C241.919 68.92 242.239 68.3533 242.465 67.66V62.16L241.165 62V61.48C241.579 61.32 242.005 61.18 242.445 61.06C242.899 60.94 243.339 60.84 243.765 60.76H244.265V69.86L245.585 70.02V70.44C245.199 70.6133 244.805 70.7667 244.405 70.9C244.019 71.0333 243.612 71.1333 243.185 71.2H242.685L242.545 68.82H242.465C242.399 69.1 242.279 69.3867 242.105 69.68C241.945 69.96 241.732 70.22 241.465 70.46C241.199 70.6867 240.892 70.8733 240.545 71.02C240.212 71.1667 239.845 71.24 239.445 71.24C238.912 71.24 238.439 71.1733 238.025 71.04C237.625 70.92 237.285 70.7 237.005 70.38C236.725 70.06 236.512 69.6333 236.365 69.1C236.219 68.5533 236.145 67.8667 236.145 67.04ZM247.63 57.36L246.11 57.2V56.68C246.523 56.5067 246.983 56.3667 247.49 56.26C248.01 56.1533 248.49 56.0533 248.93 55.96H249.43V62.98H249.47C249.697 62.3 250.077 61.76 250.61 61.36C251.157 60.96 251.757 60.76 252.41 60.76C253.623 60.76 254.55 61.1733 255.19 62C255.843 62.8267 256.17 64.1 256.17 65.82C256.17 67.58 255.723 68.9133 254.83 69.82C253.95 70.7267 252.677 71.18 251.01 71.18C250.677 71.18 250.343 71.1533 250.01 71.1C249.677 71.06 249.357 71.0067 249.05 70.94C248.743 70.8733 248.463 70.7933 248.21 70.7C247.97 70.6067 247.777 70.5133 247.63 70.42V57.36ZM251.87 62C251.23 62 250.71 62.22 250.31 62.66C249.91 63.0867 249.617 63.6333 249.43 64.3V69.88C249.67 70.0133 249.963 70.12 250.31 70.2C250.657 70.2667 251.023 70.3 251.41 70.3C252.29 70.3 252.983 69.92 253.49 69.16C253.997 68.3867 254.25 67.2733 254.25 65.82C254.25 65.3 254.203 64.8067 254.11 64.34C254.03 63.8733 253.89 63.4667 253.69 63.12C253.503 62.7733 253.257 62.5 252.95 62.3C252.657 62.1 252.297 62 251.87 62ZM265.908 69.6C265.802 69.8267 265.635 70.04 265.408 70.24C265.182 70.44 264.922 70.6133 264.628 70.76C264.335 70.9067 264.015 71.02 263.668 71.1C263.322 71.1933 262.968 71.24 262.608 71.24C261.822 71.24 261.128 71.12 260.528 70.88C259.928 70.6267 259.428 70.2733 259.028 69.82C258.628 69.3533 258.322 68.8 258.108 68.16C257.908 67.52 257.808 66.8 257.808 66C257.808 64.2933 258.202 62.9933 258.988 62.1C259.775 61.2067 260.888 60.76 262.328 60.76C262.795 60.76 263.255 60.8267 263.708 60.96C264.162 61.08 264.562 61.2867 264.908 61.58C265.268 61.8733 265.555 62.2667 265.768 62.76C265.995 63.24 266.108 63.84 266.108 64.56C266.108 64.7867 266.095 65.02 266.068 65.26C266.055 65.4867 266.022 65.7333 265.968 66H259.728C259.728 66.56 259.795 67.0867 259.928 67.58C260.075 68.06 260.288 68.48 260.568 68.84C260.848 69.2 261.202 69.4867 261.628 69.7C262.055 69.9 262.555 70 263.128 70C263.595 70 264.068 69.9333 264.548 69.8C265.028 69.6667 265.388 69.4933 265.628 69.28L265.908 69.6ZM262.248 61.64C261.488 61.64 260.908 61.9 260.508 62.42C260.108 62.9267 259.868 63.8267 259.788 65.12H264.188C264.202 65 264.208 64.8867 264.208 64.78C264.222 64.66 264.228 64.5467 264.228 64.44C264.228 63.5867 264.068 62.9067 263.748 62.4C263.428 61.8933 262.928 61.64 262.248 61.64ZM272.307 71H267.867V70.5C268.307 70.2867 268.747 70.1267 269.187 70.02V57.36L267.667 57.2V56.68C268.014 56.52 268.447 56.38 268.967 56.26C269.487 56.14 269.994 56.04 270.487 55.96H270.987V70.02C271.427 70.1267 271.867 70.2867 272.307 70.5V71ZM281.983 69.6C281.876 69.8267 281.709 70.04 281.483 70.24C281.256 70.44 280.996 70.6133 280.703 70.76C280.409 70.9067 280.089 71.02 279.743 71.1C279.396 71.1933 279.043 71.24 278.683 71.24C277.896 71.24 277.203 71.12 276.603 70.88C276.002 70.6267 275.503 70.2733 275.103 69.82C274.703 69.3533 274.396 68.8 274.183 68.16C273.983 67.52 273.883 66.8 273.883 66C273.883 64.2933 274.276 62.9933 275.063 62.1C275.849 61.2067 276.963 60.76 278.403 60.76C278.869 60.76 279.329 60.8267 279.783 60.96C280.236 61.08 280.636 61.2867 280.983 61.58C281.343 61.8733 281.629 62.2667 281.843 62.76C282.069 63.24 282.183 63.84 282.183 64.56C282.183 64.7867 282.169 65.02 282.143 65.26C282.129 65.4867 282.096 65.7333 282.043 66H275.803C275.803 66.56 275.869 67.0867 276.002 67.58C276.149 68.06 276.363 68.48 276.643 68.84C276.923 69.2 277.276 69.4867 277.703 69.7C278.129 69.9 278.629 70 279.203 70C279.669 70 280.143 69.9333 280.623 69.8C281.103 69.6667 281.463 69.4933 281.703 69.28L281.983 69.6ZM278.323 61.64C277.563 61.64 276.983 61.9 276.583 62.42C276.183 62.9267 275.943 63.8267 275.863 65.12H280.263C280.276 65 280.283 64.8867 280.283 64.78C280.296 64.66 280.303 64.5467 280.303 64.44C280.303 63.5867 280.143 62.9067 279.823 62.4C279.503 61.8933 279.003 61.64 278.323 61.64ZM294.661 71H290.361V70.5C290.721 70.3133 291.114 70.1533 291.541 70.02V65.28C291.541 64.2667 291.394 63.4667 291.101 62.88C290.808 62.2933 290.274 62 289.501 62C289.168 62 288.854 62.06 288.561 62.18C288.281 62.3 288.028 62.4667 287.801 62.68C287.588 62.88 287.401 63.1133 287.241 63.38C287.081 63.6333 286.954 63.9 286.861 64.18V70.02C287.274 70.1 287.674 70.26 288.061 70.5V71H283.741V70.5C284.074 70.3267 284.514 70.1667 285.061 70.02V62.16L283.741 62V61.48C284.088 61.3333 284.488 61.2 284.941 61.08C285.394 60.96 285.868 60.8533 286.361 60.76H286.861V63H286.881C287.161 62.3867 287.561 61.86 288.081 61.42C288.614 60.98 289.254 60.76 290.001 60.76C290.534 60.76 291.008 60.8267 291.421 60.96C291.848 61.08 292.201 61.3 292.481 61.62C292.761 61.94 292.974 62.3733 293.121 62.92C293.268 63.4533 293.341 64.1333 293.341 64.96V70.02C293.874 70.1133 294.314 70.2733 294.661 70.5V71Z" fill="white"/>
<defs>
<clipPath id="clip0_2005_406">
<rect width="156.154" height="30" fill="white" transform="translate(93.4231)"/>
</clipPath>
</defs>
</svg>
